<?xml version="1.0" encoding="UTF-8" standalone="no"?>
<!-- Created with Inkscape (http://www.inkscape.org/) -->

<svg
   xmlns:dc="http://purl.org/dc/elements/1.1/"
   xmlns:cc="http://creativecommons.org/ns#"
   xmlns:rdf="http://www.w3.org/1999/02/22-rdf-syntax-ns#"
   xmlns:svg="http://www.w3.org/2000/svg"
   xmlns="http://www.w3.org/2000/svg"
   xmlns:sodipodi="http://sodipodi.sourceforge.net/DTD/sodipodi-0.dtd"
   xmlns:inkscape="http://www.inkscape.org/namespaces/inkscape"
   id="svg2"
   version="1.1"
   inkscape:version="0.48.4 r9939"
   width="1000.0013"
   height="1000"
   xml:space="preserve"
   sodipodi:docname="turysta.svg"><metadata
     id="metadata8"><rdf:RDF><cc:Work
         rdf:about=""><dc:format>image/svg+xml</dc:format><dc:type
           rdf:resource="http://purl.org/dc/dcmitype/StillImage" /><dc:title></dc:title></cc:Work></rdf:RDF></metadata><defs
     id="defs6"><clipPath
       clipPathUnits="userSpaceOnUse"
       id="clipPath18"><path
         d="m 0.001,0 800,0 0,98.368 -800,0 0,-98.368 z"
         id="path20" /></clipPath><radialGradient
       fx="0"
       fy="0"
       cx="0"
       cy="0"
       r="1"
       gradientUnits="userSpaceOnUse"
       gradientTransform="matrix(945.67993,0,0,-85.691269,400.00049,49.183594)"
       spreadMethod="pad"
       id="radialGradient26"><stop
         style="stop-opacity:1;stop-color:#f37b53"
         offset="0"
         id="stop28" /><stop
         style="stop-opacity:1;stop-color:#8c462b"
         offset="1"
         id="stop30" /></radialGradient><clipPath
       clipPathUnits="userSpaceOnUse"
       id="clipPath38"><path
         d="m 0,800 800.001,0 0,-800 L 0,0 0,800 z"
         id="path40" /></clipPath><clipPath
       clipPathUnits="userSpaceOnUse"
       id="clipPath46"><path
         d="M 9.76562e-4,800 800.001,800 800.001,0 9.76562e-4,0 l 0,800 z"
         id="path48" /></clipPath><clipPath
       clipPathUnits="userSpaceOnUse"
       id="clipPath50"><path
         d="m 0.001,0 800,0 0,800 -800,0 0,-800 z"
         id="path52" /></clipPath><clipPath
       clipPathUnits="userSpaceOnUse"
       id="clipPath54"><path
         d="M 9.76562e-4,800 800.001,800 800.001,0 9.76562e-4,0 l 0,800 z"
         id="path56" /></clipPath><clipPath
       clipPathUnits="userSpaceOnUse"
       id="clipPath58"><path
         d="M 9.76562e-4,800 800.001,800 800.001,0 9.76562e-4,0 l 0,800 z"
         id="path60" /></clipPath><clipPath
       clipPathUnits="userSpaceOnUse"
       id="clipPath62"><path
         d="m 0.001,0 800,0 0,800 -800,0 0,-800 z"
         id="path64" /></clipPath><radialGradient
       fx="0"
       fy="0"
       cx="0"
       cy="0"
       r="1"
       gradientUnits="userSpaceOnUse"
       gradientTransform="matrix(563.34869,0,0,-563.34259,400.07666,400.15918)"
       spreadMethod="pad"
       id="radialGradient66"><stop
         style="stop-opacity:1;stop-color:#231f20"
         offset="0"
         id="stop68" /><stop
         style="stop-opacity:1;stop-color:#6d6e71"
         offset="1"
         id="stop70" /></radialGradient><mask
       maskUnits="userSpaceOnUse"
       x="0"
       y="0"
       width="1"
       height="1"
       id="mask72"><g
         id="g74"><g
           clip-path="url(#clipPath54)"
           id="g76"><path
             d="m 0.001,800 800,0 0,-800 -800,0 0,800 z"
             style="fill:#000000;fill-opacity:1;fill-rule:nonzero;stroke:none"
             id="path78" /><g
             id="g80"><g
               id="g82" /><g
               id="g84"><g
                 clip-path="url(#clipPath58)"
                 id="g86"><g
                   id="g88"><g
                     clip-path="url(#clipPath62)"
                     id="g90"><g
                       id="g92"><g
                         id="g94"><path
                           d="m 0.001,0 800,0 0,800 -800,0 0,-800 z"
                           style="fill:url(#radialGradient66);stroke:none"
                           id="path96" /></g></g></g></g></g></g></g></g></g></mask><clipPath
       clipPathUnits="userSpaceOnUse"
       id="clipPath98"><path
         d="M 9.76562e-4,800 800.001,800 800.001,0 9.76562e-4,0 l 0,800 z"
         id="path100" /></clipPath><clipPath
       clipPathUnits="userSpaceOnUse"
       id="clipPath102"><path
         d="m 0.001,0 800,0 0,800 -800,0 0,-800 z"
         id="path104" /></clipPath><radialGradient
       fx="0"
       fy="0"
       cx="0"
       cy="0"
       r="1"
       gradientUnits="userSpaceOnUse"
       gradientTransform="matrix(563.54065,0,0,-563.53448,400.07666,400.19531)"
       spreadMethod="pad"
       id="radialGradient106"><stop
         style="stop-opacity:1;stop-color:#ffffff"
         offset="0"
         id="stop108" /><stop
         style="stop-opacity:1;stop-color:#1d1e1c"
         offset="1"
         id="stop110" /></radialGradient><clipPath
       clipPathUnits="userSpaceOnUse"
       id="clipPath146"><path
         d="m 0,0 800.001,0 0,799.999 L 0,799.999 0,0 z"
         id="path148" /></clipPath><clipPath
       clipPathUnits="userSpaceOnUse"
       id="clipPath278"><path
         d="m 0,800 800.001,0 0,-800 L 0,0 0,800 z"
         id="path280" /></clipPath><clipPath
       clipPathUnits="userSpaceOnUse"
       id="clipPath286"><path
         d="m 198.596,86.4326 413.986,0 0,-26.2012 -413.986,0 0,26.2012 z"
         id="path288" /></clipPath><clipPath
       clipPathUnits="userSpaceOnUse"
       id="clipPath610"><path
         d="m 193.691,520.165 c 0.349,-49.67 40.665,-89.936 90.05,-89.936 l 0,0 c 49.382,0 89.135,40.266 88.782,89.936 l 0,0 c -0.345,49.673 -40.662,89.94 -90.047,89.94 l 0,0 c -49.382,0 -89.134,-40.267 -88.785,-89.94"
         id="path612" /></clipPath><clipPath
       clipPathUnits="userSpaceOnUse"
       id="clipPath866"><path
         d="m 0,800 800.001,0 0,-800 L 0,0 0,800 z"
         id="path868" /></clipPath></defs><sodipodi:namedview
     pagecolor="#ffffff"
     bordercolor="#666666"
     borderopacity="1"
     objecttolerance="10"
     gridtolerance="10"
     guidetolerance="10"
     inkscape:pageopacity="0"
     inkscape:pageshadow="2"
     inkscape:window-width="1688"
     inkscape:window-height="860"
     id="namedview4"
     showgrid="false"
     inkscape:zoom="0.77967241"
     inkscape:cx="830.24171"
     inkscape:cy="529.90941"
     inkscape:window-x="150"
     inkscape:window-y="1038"
     inkscape:window-maximized="0"
     inkscape:current-layer="g10" /><g
     id="g10"
     inkscape:groupmode="layer"
     inkscape:label="14887-NPTWQB"
     transform="matrix(1.25,0,0,-1.25,0,1000)"><g
       id="g274"
       transform="matrix(-1,0,0,1,839.66833,67.72075)"><g
         id="g276"
         clip-path="url(#clipPath278)"><g
           id="g298"
           transform="translate(569.2871,347.4492)"><path
             d="m 0,0 c 0,0 -2.983,-20.327 -1.626,-35.959 1.365,-15.642 9.042,-40.654 9.05,-41.603 l -9.466,-4.437 c 0,0 -3.997,28.493 -6.352,48.121 -2.354,19.629 1.677,31.34 1.677,31.34 L 0,0 z"
             style="fill:#792f18;fill-opacity:1;fill-rule:evenodd;stroke:none"
             id="path300"
             inkscape:connector-curvature="0" /></g><g
           id="g302"
           transform="translate(549.0039,338.584)"><path
             d="M 0,0 C 2.817,-7.231 0.927,-34.474 6.449,-62.053 L -3.629,-69.33 c 0,0 -4.11,44.317 -4.162,51.284 -0.047,6.967 0.938,12.787 0.938,12.787 L 0,0 z"
             style="fill:#792f18;fill-opacity:1;fill-rule:evenodd;stroke:none"
             id="path304"
             inkscape:connector-curvature="0" /></g><g
           id="g306"
           transform="translate(559.6738,420.2593)"><path
             d="M 0,0 C 1.733,0.633 19.138,1.899 24.075,-2.531 29.013,-6.967 30.23,-45.274 28.981,-47.642 27.729,-50.018 7.03,-54.925 3.07,-54.611 -0.889,-54.292 -7.546,-7.6 -6.624,-4.274 -5.695,-0.948 0,0 0,0"
             style="fill:#6f382b;fill-opacity:1;fill-rule:evenodd;stroke:none"
             id="path308"
             inkscape:connector-curvature="0" /></g><g
           id="g310"
           transform="translate(449.2324,474.1328)"><path
             d="m 0,0 c 3.27,1.979 35.15,28.589 48.752,30.171 13.601,1.585 44.645,-1.266 52.911,-6.011 8.262,-4.753 21.677,-21.526 24.295,-33.557 2.615,-12.032 -2.857,-44.322 -1.56,-48.754 1.298,-4.433 -0.304,-46.852 2.944,-58.249 3.244,-11.401 -13.107,-27.226 -26.989,-34.194 -13.877,-6.966 -74.215,-5.022 -80.954,20.283 C 12.66,-105.003 0,0 0,0"
             style="fill:#8c3921;fill-opacity:1;fill-rule:evenodd;stroke:none"
             id="path312"
             inkscape:connector-curvature="0" /></g><g
           id="g314"
           transform="translate(453.8867,477.5947)"><path
             d="m 0,0 c 10.088,7.736 33.081,25.429 44.098,26.709 13.6,1.585 44.645,-1.266 52.911,-6.011 8.262,-4.753 21.677,-21.526 24.295,-33.557 0.534,-2.454 0.728,-5.757 0.718,-9.495 0,0 -9.64,17.41 -21.067,21.526 C 89.531,3.289 61.809,-7.243 56.146,-8.626 51.734,-9.708 15.265,-3.977 0,0"
             style="fill:#6f382b;fill-opacity:1;fill-rule:evenodd;stroke:none"
             id="path316"
             inkscape:connector-curvature="0" /></g><g
           id="g318"
           transform="translate(478.9199,492.4702)"><path
             d="M 0,0 C 1.901,-0.158 29.729,4.433 29.729,4.433 L 26.992,-8.751 -14.618,-14.563 -12.965,-1.74 0,0 z"
             style="fill:#a04523;fill-opacity:1;fill-rule:evenodd;stroke:none"
             id="path320"
             inkscape:connector-curvature="0" /></g><g
           id="g322"
           transform="translate(413.1797,434.3223)"><path
             d="m 0,0 c -3.002,-3.932 -36.224,-38.355 -45.146,-36.208 -10.188,2.448 -42.01,37.989 -47.362,42.561 0,0 -29.996,-7.939 -39.178,-7.939 -9.181,0 -23.788,6.651 -24.708,2.219 -0.92,-4.433 4.818,-10.447 12.44,-13.614 8.166,-3.392 33.761,-4.098 38.918,2.851 0,0 32.686,-33.404 43.206,-43.534 10.516,-10.131 11.142,-9.173 17.465,-8.226 6.327,0.951 59.719,39.094 59.719,39.094 L 0,0 z"
             style="fill:#fbc9b3;fill-opacity:1;fill-rule:evenodd;stroke:none"
             id="path324"
             inkscape:connector-curvature="0" /></g><g
           id="g326"
           transform="translate(308.1436,424.1924)"><path
             d="m 0,0 c 0,0 31.59,-35.301 42.11,-45.432 10.516,-10.131 12.253,-9.498 18.579,-8.549 6.325,0.955 59.701,41.315 59.701,41.315 l -4.654,6.909 C 96.819,-20.971 63,-48.103 56.313,-45.881 49.629,-43.652 0,0 0,0"
             style="fill:#ebbaa5;fill-opacity:1;fill-rule:evenodd;stroke:none"
             id="path328"
             inkscape:connector-curvature="0" /></g><g
           id="g330"
           transform="translate(308.1436,424.1924)"><path
             d="m 0,0 c 0,0 31.59,-35.301 42.11,-45.432 10.516,-10.131 12.253,-9.498 18.579,-8.549 6.325,0.955 59.701,41.315 59.701,41.315 l -4.654,6.909 C 96.819,-20.971 63,-48.103 56.313,-45.881 49.629,-43.652 0,0 0,0 z"
             style="fill:none;stroke:#ebbaa5;stroke-width:0.21600001;stroke-linecap:butt;stroke-linejoin:miter;stroke-miterlimit:2.61299992;stroke-opacity:1;stroke-dasharray:none"
             id="path332"
             inkscape:connector-curvature="0" /></g><g
           id="g334"
           transform="translate(321.7539,439.6011)"><path
             d="m 0,0 -12.132,-2.965 c 0,0 -19.598,-3.797 -28.779,-3.797 -5.731,0 -13.573,2.59 -18.885,3.459 -0.65,-0.825 -1.067,-1.487 -1.115,-1.885 -0.254,-2.015 10.663,-8.548 16.373,-9.497 C -25.407,-17.87 -15.125,-8.354 0,0"
             style="fill:#ebbaa5;fill-opacity:1;fill-rule:evenodd;stroke:none"
             id="path336"
             inkscape:connector-curvature="0" /></g><g
           id="g338"
           transform="translate(444.9473,475.3394)"><path
             d="m 0,0 -7.412,-1.47 -36.009,-46.526 c 0,0 6.405,-10.446 11.503,-15.191 5.098,-4.753 12.426,-11.08 12.426,-11.08 L 7.725,-27.731 0,0 z"
             style="fill:#c85a28;fill-opacity:1;fill-rule:evenodd;stroke:none"
             id="path340"
             inkscape:connector-curvature="0" /></g><g
           id="g342"
           transform="translate(414.4229,410.8613)"><path
             d="M 0,0 C 4.939,-4.528 11.032,-9.789 11.032,-9.789 L 19.955,5.47 25.103,42.695 C 23.69,41.268 0.009,0.011 0,0"
             style="fill:#b65026;fill-opacity:1;fill-rule:evenodd;stroke:none"
             id="path344"
             inkscape:connector-curvature="0" /></g><g
           id="g346"
           transform="translate(430.9902,419.4565)"><path
             d="m 0,0 c -0.161,0.795 -1.198,35.615 1.27,45.113 2.463,9.498 7.337,14.088 8.128,14.25 0.792,0.155 19.408,4.554 17.767,3.542 C 25.524,61.894 0,0 0,0"
             style="fill:#792f18;fill-opacity:1;fill-rule:evenodd;stroke:none"
             id="path348"
             inkscape:connector-curvature="0" /></g><g
           id="g350"
           transform="translate(486.1709,227.9092)"><path
             d="m 0,0 33.903,-142.286 21.835,1.265 c 0,0 -23.096,135.96 -24.394,140.395 C 30.048,3.805 0,0 0,0"
             style="fill:#fbc9b3;fill-opacity:1;fill-rule:evenodd;stroke:none"
             id="path352"
             inkscape:connector-curvature="0" /></g><g
           id="g354"
           transform="translate(540.9121,92.7588)"><path
             d="m 0,0 c -3.296,19.37 -13.944,81.837 -19.69,114.427 l -4.761,-2.142 C -22.045,103.465 -6.665,-1.037 -3.748,-0.758 -3.086,-0.7 -1.723,-0.412 0,0"
             style="fill:#ebbaa5;fill-opacity:1;fill-rule:evenodd;stroke:none"
             id="path356"
             inkscape:connector-curvature="0" /></g><g
           id="g358"
           transform="translate(437.7275,229.1807)"><path
             d="m 0,0 -36.528,-136.806 -23.04,2.914 23.756,102.899 9.157,31.091 L 0,0 z"
             style="fill:#fbc9b3;fill-opacity:1;fill-rule:evenodd;stroke:none"
             id="path360"
             inkscape:connector-curvature="0" /></g><g
           id="g362"
           transform="translate(432.209,208.5156)"><path
             d="m 0,0 -31.01,-116.141 -4.557,0.576 c 3.164,12.461 12.291,48.17 14.338,53.644 2.484,6.644 12.235,60.781 12.848,63.313 L 0,0 z"
             style="fill:#ebbaa5;fill-opacity:1;fill-rule:evenodd;stroke:none"
             id="path364"
             inkscape:connector-curvature="0" /></g><g
           id="g366"
           transform="translate(518.4199,325.7324)"><path
             d="m 0,0 c 2.577,-19.644 6.043,-39.051 9.42,-58.177 2.851,-16.165 5.643,-32.128 7.782,-47.879 1.339,-9.812 3.37,-28.809 3.37,-28.809 0,0 -41.416,-8.231 -45.837,-9.815 -4.418,-1.58 -11.056,-3.163 -12.334,-1.58 -1.274,1.58 -4.846,13.928 -7.142,25.322 -2.296,11.403 -14.295,47.891 -14.295,47.891 0,0 -9.207,-37.121 -11.049,-45.354 -1.844,-8.231 -5.197,-26.593 -7.095,-26.279 -1.902,0.319 -59.624,14.884 -61.536,16.783 -1.913,1.898 43.036,128.721 43.036,128.721 L 0,0 z"
             style="fill:#6e573b;fill-opacity:1;fill-rule:evenodd;stroke:none"
             id="path368"
             inkscape:connector-curvature="0" /></g><g
           id="g370"
           transform="translate(521.1484,306.8691)"><path
             d="m 0,0 c 2.067,-13.229 4.398,-26.337 6.691,-39.313 2.851,-16.166 5.643,-32.128 7.783,-47.879 1.339,-9.813 3.37,-28.81 3.37,-28.81 0,0 -41.416,-8.23 -45.837,-9.814 -4.418,-1.58 -11.057,-3.163 -12.334,-1.58 -1.275,1.58 -4.847,13.927 -7.143,25.321 -2.296,11.403 -14.295,47.891 -14.295,47.891 0,0 -9.207,-37.121 -11.048,-45.354 -1.844,-8.231 -5.198,-26.593 -7.095,-26.278 -1.903,0.318 -59.625,14.883 -61.537,16.782 -0.269,0.264 0.386,2.994 1.707,7.481 3.277,-1.427 6.017,-2.817 6.592,-3.046 1.585,-0.632 40.208,-8.73 41.852,-9.179 1.644,-0.45 8.441,15.197 9.06,17.414 0.618,2.212 20.165,58.565 20.165,58.565 l 25.91,-83.264 45.48,15.517 c 0,0 -4.322,29.44 -11.054,41.152 -6.732,11.713 -11.189,15.832 -5.877,25.645 4.015,7.416 -2.642,41.604 -7.23,57.715 l 2.348,-0.021 C -9.284,14.133 -4.94,7.555 0,0"
             style="fill:#64513b;fill-opacity:1;fill-rule:evenodd;stroke:none"
             id="path372"
             inkscape:connector-curvature="0" /></g><g
           id="g374"
           transform="translate(493.7549,515.3384)"><path
             d="m 0,0 c -0.927,-3.325 -2.574,-16.145 -2.53,-22.953 0.05,-6.805 15.647,-4.429 15.647,-4.429 0,0 -5.726,-10.292 -17.06,-19.789 -11.329,-9.497 -23.483,-14.405 -31.745,-9.969 -8.26,4.429 -3.738,13.769 -3.738,13.769 l 7.699,8.231 8.214,2.216 c 0,0 3.54,14.72 4.773,19.469 1.231,4.748 2.014,6.172 2.014,6.172 L 0,0 z"
             style="fill:#e3ac96;fill-opacity:1;fill-rule:evenodd;stroke:none"
             id="path376"
             inkscape:connector-curvature="0" /></g><g
           id="g378"
           transform="translate(454.3291,471.9673)"><path
             d="m 0,0 c -16.626,-25.702 -36.54,-129.639 -37.085,-130.256 -0.724,-0.825 -3.976,-19.945 -3.976,-19.945 0,0 10.484,-12.718 14.813,-13.139 11.318,-1.095 47.271,14.987 58.432,16.112 8.037,0.816 14.466,-1.45 16.413,-1.266 7.922,0.744 10.427,11.602 11.087,12.337 0,0 -1.585,0.118 -4.341,0.325 -3.267,38.99 -9.296,129.751 -2.8,151.821 C 54.052,21.118 46.816,5.697 35.482,-3.8 23.068,-14.207 -2.423,-16.955 0,0"
             style="fill:#405465;fill-opacity:1;fill-rule:evenodd;stroke:none"
             id="path380"
             inkscape:connector-curvature="0" /></g><g
           id="g382"
           transform="translate(504.665,479.4888)"><path
             d="M 0,0 -0.43,0.35 -0.087,0.78 0.346,0.434 0,0 z m -0.688,-0.86 -0.433,0.349 0.346,0.43 0.434,-0.346 -0.347,-0.433 z m -0.688,-0.861 -0.434,0.349 0.346,0.431 0.429,-0.346 -0.341,-0.434 z m -0.69,-0.861 -0.436,0.346 0.347,0.434 0.434,-0.349 -0.345,-0.431 z m -0.689,-0.861 -0.433,0.346 0.341,0.434 0.434,-0.349 -0.342,-0.431 z m -0.691,-0.86 -0.431,0.345 0.343,0.435 0.432,-0.35 -0.344,-0.43 z m -0.688,-0.861 -0.434,0.345 0.344,0.435 0.436,-0.35 -0.346,-0.43 z m -0.691,-0.861 -0.431,0.346 0.342,0.43 0.434,-0.35 -0.345,-0.426 z m -0.688,-0.861 -0.435,0.346 0.345,0.43 0.435,-0.348 -0.345,-0.428 z m -0.693,-0.86 -0.434,0.346 0.347,0.429 0.434,-0.349 -0.347,-0.426 z m -0.69,-0.864 -0.431,0.348 0.343,0.428 0.434,-0.346 -0.346,-0.43 z m -0.693,-0.862 -0.43,0.35 0.346,0.427 0.43,-0.347 -0.346,-0.43 z m -0.686,-0.861 -0.435,0.35 0.345,0.427 0.434,-0.345 -0.344,-0.432 z m -0.693,-0.864 -0.433,0.354 0.344,0.426 0.435,-0.345 -0.346,-0.435 z m -0.692,-0.861 -0.435,0.35 0.348,0.431 0.434,-0.346 -0.347,-0.435 z m -0.692,-0.86 -0.429,0.349 0.342,0.43 0.434,-0.345 -0.347,-0.434 z m -0.69,-0.861 -0.431,0.349 0.347,0.431 0.43,-0.35 -0.346,-0.43 z m -0.688,-0.861 -0.434,0.346 0.344,0.434 0.435,-0.349 -0.345,-0.431 z m -0.691,-0.864 -0.434,0.35 0.344,0.43 0.435,-0.35 -0.345,-0.43 z m -0.692,-0.865 -0.435,0.35 0.346,0.43 0.435,-0.345 -0.346,-0.435 z m -0.692,-0.86 -0.434,0.345 0.345,0.434 0.435,-0.345 -0.346,-0.434 z m -0.691,-0.861 -0.431,0.345 0.346,0.431 0.431,-0.346 -0.346,-0.43 z m -0.688,-0.865 -0.434,0.35 0.345,0.426 0.431,-0.345 -0.342,-0.431 z m -0.691,-0.864 -0.434,0.349 0.344,0.431 0.435,-0.346 -0.345,-0.434 z m -0.691,-0.861 -0.435,0.346 0.346,0.435 0.433,-0.35 -0.344,-0.431 z m -0.693,-0.861 -0.434,0.347 0.346,0.43 0.434,-0.35 -0.346,-0.427 z m -0.691,-0.868 -0.431,0.35 0.347,0.431 0.429,-0.346 -0.345,-0.435 z m -0.688,-0.86 -0.434,0.346 0.346,0.433 0.43,-0.344 -0.342,-0.435 z m -0.691,-0.861 -0.435,0.346 0.346,0.433 0.43,-0.348 -0.341,-0.431 z m -0.692,-0.864 -0.435,0.349 0.346,0.43 0.434,-0.349 -0.345,-0.43 z m -0.692,-0.865 -0.434,0.35 0.346,0.43 0.434,-0.346 -0.346,-0.434 z m -0.691,-0.86 -0.432,0.345 0.348,0.435 0.429,-0.35 -0.345,-0.43 z m -0.688,-0.861 -0.434,0.346 0.346,0.43 0.43,-0.349 -0.342,-0.427 z m -0.691,-0.865 -0.435,0.35 0.346,0.426 0.432,-0.345 -0.343,-0.431 z m -0.693,-0.864 -0.434,0.35 0.346,0.429 0.435,-0.345 -0.347,-0.434 z m -0.69,-0.86 -0.435,0.345 0.346,0.433 0.435,-0.348 -0.346,-0.43 z m -0.691,-0.865 -0.432,0.349 0.344,0.43 0.431,-0.349 -0.343,-0.43 z m -0.693,-0.864 -0.43,0.352 0.341,0.427 0.435,-0.346 -0.346,-0.433 z m -0.691,-0.861 -0.43,0.348 0.346,0.432 0.429,-0.347 -0.345,-0.433 z m -0.689,-0.861 -0.433,0.345 0.345,0.435 0.435,-0.35 -0.347,-0.43 z m -0.691,-0.865 -0.434,0.35 0.346,0.43 0.434,-0.349 -0.346,-0.431 z m -0.691,-0.864 -0.434,0.349 0.346,0.431 0.433,-0.346 -0.345,-0.434 z m -0.692,-0.861 -0.431,0.346 0.343,0.434 0.433,-0.35 -0.345,-0.43 z m -0.691,-0.86 -0.431,0.345 0.346,0.431 0.431,-0.35 -0.346,-0.426 z m -0.689,-0.865 -0.433,0.346 0.344,0.431 0.436,-0.347 -0.347,-0.43 z m -0.69,-0.864 -0.436,0.345 0.347,0.435 0.434,-0.347 -0.345,-0.433 z m -0.692,-0.861 -0.434,0.346 0.345,0.434 0.434,-0.349 -0.345,-0.431 z m -0.691,-0.861 -0.432,0.346 0.343,0.43 0.435,-0.348 -0.346,-0.428 z m -0.693,-0.864 -0.43,0.345 0.345,0.431 0.431,-0.345 -0.346,-0.431 z m -0.687,-0.865 -0.434,0.346 0.345,0.434 0.435,-0.346 -0.346,-0.434 z m -0.692,-0.86 -0.433,0.346 0.345,0.434 0.435,-0.35 -0.347,-0.43 z m -0.691,-0.865 -0.434,0.35 0.345,0.43 0.435,-0.349 -0.346,-0.431 z m -0.691,-0.864 -0.434,0.349 0.344,0.43 0.435,-0.345 -0.345,-0.434 z m -0.693,-0.861 -0.435,0.346 0.351,0.434 0.43,-0.35 -0.346,-0.43 z m -0.688,-0.865 -0.434,0.35 0.346,0.431 0.431,-0.35 -0.343,-0.431 z m -0.69,-0.864 -0.435,0.353 0.347,0.427 0.433,-0.346 -0.345,-0.434 z m -0.693,-0.86 -0.433,0.349 0.345,0.43 0.435,-0.345 -0.347,-0.434 z m -0.689,-0.862 -0.436,0.347 0.345,0.434 0.434,-0.35 -0.343,-0.431 z m -0.694,-0.864 -0.434,0.349 0.349,0.431 0.432,-0.349 -0.347,-0.431 z m -0.687,-0.864 -0.436,0.352 0.348,0.428 0.43,-0.346 -0.342,-0.434 z m -0.692,-0.861 -0.434,0.346 0.346,0.434 0.435,-0.346 -0.347,-0.434 z m -0.691,-0.861 -0.435,0.347 0.346,0.433 0.436,-0.349 -0.347,-0.431 z m -0.691,-0.864 -0.434,0.35 0.345,0.43 0.434,-0.35 -0.345,-0.43 z m -0.692,-0.864 -0.434,0.349 0.349,0.431 0.43,-0.346 -0.345,-0.434 z m -1.505,-0.17 0.549,0.096 0.007,-0.055 0.014,-0.077 0.011,-0.059 0.144,0.184 0.435,-0.35 -0.342,-0.43 -0.277,0.221 -0.445,-0.074 0,0.003 -0.008,0.049 -0.011,0.052 -0.006,0.054 -0.013,0.063 -0.009,0.059 -0.012,0.069 -0.014,0.071 -0.012,0.073 -0.011,0.051 z m -0.188,1.097 0.549,0.088 0.014,-0.088 0.019,-0.111 0.018,-0.113 0.02,-0.108 0.017,-0.103 0.003,-0.021 -0.544,-0.093 -0.004,0.027 -0.018,0.103 -0.018,0.102 -0.018,0.114 -0.022,0.114 -0.016,0.089 z m -0.187,1.096 0.544,0.088 0.004,-0.019 0.022,-0.142 0.026,-0.141 0.023,-0.132 0.021,-0.114 -0.549,-0.092 -0.018,0.114 -0.022,0.136 -0.025,0.14 -0.026,0.14 0,0.022 z m -0.191,1.088 0.544,0.096 0.009,-0.037 0.027,-0.162 0.026,-0.162 0.026,-0.154 0.007,-0.033 -0.544,-0.092 -0.007,0.033 -0.027,0.158 -0.028,0.158 -0.03,0.166 -0.003,0.029 z m -0.192,1.096 0.545,0.089 0.018,-0.096 0.029,-0.177 0.034,-0.176 0.018,-0.096 -0.548,-0.091 -0.018,0.099 -0.032,0.173 -0.032,0.181 -0.014,0.094 z m -0.191,1.093 0.549,0.092 0.011,-0.065 0.032,-0.192 0.033,-0.192 0.015,-0.095 -0.544,-0.096 -0.018,0.099 -0.033,0.192 -0.034,0.194 -0.011,0.063 z m -0.191,1.092 0.545,0.096 0.029,-0.154 0.037,-0.206 0.033,-0.191 -0.549,-0.088 -0.032,0.184 -0.037,0.205 -0.026,0.154 z m -0.192,1.093 0.545,0.092 0.032,-0.188 0.039,-0.217 0.024,-0.139 -0.543,-0.096 -0.026,0.143 -0.036,0.218 -0.035,0.187 z m -0.195,1.093 0.549,0.095 0.029,-0.177 0.041,-0.224 0.026,-0.147 -0.545,-0.091 -0.03,0.146 -0.039,0.224 -0.031,0.174 z m -0.19,1.096 0.545,0.092 0.02,-0.114 0.042,-0.232 0.033,-0.202 -0.544,-0.092 -0.039,0.202 -0.04,0.235 -0.017,0.111 z m -0.196,1.089 0.548,0.095 0,-0.007 0.04,-0.243 0.045,-0.243 0.011,-0.055 -0.544,-0.092 -0.012,0.059 -0.045,0.239 -0.043,0.243 0,0.004 z m -0.195,1.095 0.549,0.093 0.016,-0.114 0.047,-0.25 0.033,-0.185 -0.545,-0.092 -0.035,0.188 -0.043,0.247 -0.022,0.113 z m -0.194,1.09 0.548,0.095 0.033,-0.198 0.048,-0.251 0.018,-0.096 -0.549,-0.095 -0.017,0.095 -0.044,0.254 -0.037,0.196 z m -0.197,1.096 0.549,0.096 0,-0.008 0.044,-0.258 0.049,-0.257 0.002,-0.026 -0.544,-0.095 -0.003,0.025 -0.048,0.257 -0.049,0.262 0,0.004 z m -0.192,1.088 0.543,0.096 0.009,-0.044 0.046,-0.265 0.044,-0.236 -0.548,-0.095 -0.04,0.239 -0.049,0.265 -0.005,0.04 z m -0.196,1.096 0.545,0.096 0.01,-0.073 0.048,-0.269 0.04,-0.206 -0.548,-0.092 -0.036,0.207 -0.049,0.264 -0.01,0.073 z m -0.199,1.089 0.543,0.095 0.017,-0.083 0.051,-0.269 0.033,-0.191 -0.544,-0.097 -0.033,0.193 -0.052,0.272 -0.015,0.08 z m -0.196,1.097 0.541,0.095 0.019,-0.088 0.048,-0.277 0.037,-0.183 -0.549,-0.095 -0.033,0.184 -0.048,0.275 -0.015,0.089 z m -0.197,1.088 0.543,0.096 0.015,-0.081 0.047,-0.279 0.038,-0.184 -0.544,-0.096 -0.037,0.184 -0.047,0.28 -0.015,0.08 z m -0.202,1.092 0.547,0.101 0.01,-0.075 0.053,-0.279 0.038,-0.199 -0.547,-0.096 -0.036,0.2 -0.052,0.279 -0.013,0.069 z m -0.199,1.093 0.544,0.096 0.009,-0.052 0.054,-0.279 0.039,-0.213 -0.548,-0.096 -0.035,0.213 -0.052,0.28 -0.011,0.051 z m -0.2,1.089 0.546,0.1 0.004,-0.037 0.051,-0.276 0.042,-0.236 -0.543,-0.095 -0.043,0.235 -0.053,0.276 -0.004,0.033 z m -0.203,1.096 0.546,0.097 0.004,-0.019 0.052,-0.277 0.044,-0.253 -0.544,-0.096 -0.045,0.255 -0.052,0.271 -0.005,0.022 z m -0.199,1.089 0.542,0.096 0.052,-0.276 0.048,-0.269 -0.544,-0.095 -0.047,0.264 -0.051,0.28 z m -0.207,1.088 0.548,0.104 0.047,-0.264 0.052,-0.281 0,-0.004 -0.545,-0.098 0,0.007 -0.05,0.276 -0.052,0.26 z m -0.203,1.096 0.544,0.097 0.049,-0.258 0.05,-0.272 0.004,-0.015 -0.544,-0.099 -0.004,0.018 -0.051,0.272 -0.048,0.257 z m -0.205,1.09 0.544,0.095 0.048,-0.257 0.05,-0.269 0.004,-0.018 -0.544,-0.095 -0.004,0.014 -0.051,0.272 -0.047,0.258 z m -0.207,1.089 0.546,0.1 0.049,-0.27 0.052,-0.264 0,-0.012 -0.544,-0.099 0,0.008 -0.051,0.271 -0.052,0.266 z m -0.21,1.089 0.549,0.102 0.003,-0.029 0.051,-0.265 0.048,-0.25 -0.544,-0.103 -0.052,0.257 -0.047,0.265 -0.008,0.023 z m -0.21,1.088 0.548,0.103 0.011,-0.067 0.05,-0.26 0.043,-0.217 -0.546,-0.103 -0.04,0.221 -0.051,0.257 -0.015,0.066 z m -0.209,1.092 0.545,0.1 0.025,-0.125 0.048,-0.254 0.031,-0.166 -0.542,-0.098 -0.03,0.161 -0.051,0.254 -0.026,0.128 z m -0.209,1.089 0.54,0.103 0.04,-0.202 0.048,-0.254 0.019,-0.092 -0.541,-0.099 -0.018,0.092 -0.048,0.25 -0.04,0.202 z m -0.218,1.089 0.544,0.104 0.011,-0.059 0.049,-0.247 0.047,-0.239 -0.541,-0.104 -0.047,0.24 -0.052,0.242 -0.011,0.063 z m -0.214,1.089 0.541,0.103 0.037,-0.187 0.048,-0.24 0.026,-0.117 -0.544,-0.108 -0.022,0.119 -0.053,0.242 -0.033,0.188 z m -0.22,1.086 0.544,0.106 0.022,-0.114 0.045,-0.232 0.041,-0.195 -0.541,-0.106 -0.04,0.195 -0.049,0.231 -0.022,0.115 z m -0.224,1.088 0.544,0.11 0.017,-0.087 0.046,-0.226 0.044,-0.22 0.004,-0.011 -0.542,-0.11 -0.002,0.014 -0.046,0.221 -0.047,0.221 -0.018,0.088 z m -0.226,1.086 0.542,0.11 0.022,-0.114 0.048,-0.206 0.044,-0.214 0,-0.011 -0.541,-0.106 -0.003,0.011 -0.044,0.209 -0.044,0.21 -0.024,0.111 z m -0.231,1.084 0.545,0.111 0.037,-0.184 0.044,-0.198 0.032,-0.162 -0.54,-0.111 -0.032,0.162 -0.046,0.195 -0.04,0.187 z m -0.235,1.082 0.541,0.117 0.03,-0.139 0.041,-0.181 0.039,-0.187 0.008,-0.037 -0.541,-0.113 -0.007,0.036 -0.041,0.187 -0.04,0.181 -0.03,0.136 z m -0.243,1.081 0.54,0.122 0.004,-0.012 0.038,-0.169 0.037,-0.165 0.039,-0.172 0.004,-0.027 -0.54,-0.114 -0.004,0.022 -0.04,0.173 -0.037,0.165 -0.036,0.162 -0.005,0.015 z m -0.253,1.078 0.536,0.128 0.007,-0.025 0.034,-0.143 0.037,-0.147 0.034,-0.156 0.016,-0.073 -0.537,-0.121 -0.017,0.073 -0.037,0.151 -0.034,0.148 -0.037,0.139 -0.002,0.026 z m -0.272,1.071 0.537,0.139 0.015,-0.063 0.03,-0.12 0.033,-0.118 0.032,-0.129 0.03,-0.111 -0.541,-0.132 -0.027,0.11 -0.027,0.122 -0.035,0.124 -0.033,0.118 -0.014,0.06 z m -0.305,1.051 0.526,0.169 0.013,-0.051 0.026,-0.077 0.03,-0.085 0.025,-0.092 0.03,-0.092 0.026,-0.095 0.015,-0.052 -0.535,-0.147 -0.014,0.044 -0.025,0.096 -0.027,0.088 -0.028,0.088 -0.023,0.082 -0.024,0.08 -0.015,0.044 z m -0.085,0.559 -0.07,0.549 0.103,-0.004 0.073,-0.026 0.063,-0.033 0.048,-0.04 0.032,-0.041 0.033,-0.036 0.026,-0.038 0.026,-0.044 0.026,-0.043 0.022,-0.045 0.018,-0.037 -0.504,-0.235 -0.011,0.03 -0.015,0.029 -0.012,0.026 -0.012,0.018 -0.013,0.015 0.016,-0.008 0.029,-0.022 0.048,-0.015 0.074,0 z M 0.69,0.861 0.258,1.214 0.604,1.641 1.033,1.295 0.69,0.861 z"
             style="fill:#ffffff;fill-opacity:1;fill-rule:evenodd;stroke:none"
             id="path384"
             inkscape:connector-curvature="0" /></g><g
           id="g386"
           transform="translate(448.6729,460.6855)"><path
             d="m 0,0 c -15.174,-36.335 -30.945,-118.43 -31.429,-118.975 -0.723,-0.824 -3.975,-19.944 -3.975,-19.944 0,0 7.805,-9.475 12.726,-12.337 1.361,5.988 2.649,12.337 3.231,17.068 1.486,12.161 21.714,133.812 21.714,133.812 L 0,0 z"
             style="fill:#3b4c5b;fill-opacity:1;fill-rule:evenodd;stroke:none"
             id="path388"
             inkscape:connector-curvature="0" /></g><g
           id="g390"
           transform="translate(492.3721,324.8496)"><path
             d="m 0,0 c 5.201,-0.303 9.111,-1.516 10.554,-1.376 7.922,0.744 10.427,11.602 11.087,12.337 0,0 -1.585,0.118 -4.341,0.325 -1.98,23.615 -4.969,66.218 -5.58,101.052 -0.596,1.902 -0.942,2.994 -0.942,2.994 C 9.082,108.527 -1.049,86.364 -3.171,73.068 -5.297,59.775 3.7,41.095 6.952,28.751 10.203,16.399 -0.159,8.608 -0.21,1.11 -0.213,0.713 -0.14,0.345 0,0"
             style="fill:#3b4c5b;fill-opacity:1;fill-rule:evenodd;stroke:none"
             id="path392"
             inkscape:connector-curvature="0" /></g><g
           id="g394"
           transform="translate(454.3291,471.9673)"><path
             d="m 0,0 c -1.474,-2.281 -2.976,-5.187 -4.486,-8.574 6.742,-16.488 34.55,-6.346 44.093,1.397 9.758,7.912 11.756,17.59 11.976,18.929 l -3.057,-0.61 C 45.488,6.771 40.963,0.794 35.482,-3.8 23.068,-14.207 -2.423,-16.955 0,0"
             style="fill:#e7e6e6;fill-opacity:1;fill-rule:evenodd;stroke:none"
             id="path396"
             inkscape:connector-curvature="0" /></g><g
           id="g398"
           transform="translate(420.124,302.7793)"><path
             d="m 0,0 c -0.805,1.117 -26.112,12.483 -26.112,12.483 0,0 19.562,54.14 25.681,84.21 6.122,30.075 23.289,72.932 23.289,72.932 0,0 2.616,2.729 9.25,4.947 6.634,2.219 9.796,2.847 9.796,2.847 -1.388,-0.989 -5.955,-7.047 -6.98,-9.011 C 22.574,144.781 0.004,0 0,0"
             style="fill:#c85a28;fill-opacity:1;fill-rule:evenodd;stroke:none"
             id="path400"
             inkscape:connector-curvature="0" /></g><g
           id="g402"
           transform="translate(506.8721,487.9565)"><path
             d="m 0,0 c 9.968,2.067 22.188,4.013 23.313,1.428 1.932,-4.437 -1.507,-55.721 8.262,-94.345 9.768,-38.622 28.994,-71.542 25.208,-73.441 -3.785,-1.907 -30.21,-25.962 -30.21,-25.962 l -27.47,34.826 c 0,0 -7.824,64.226 -7.038,100.037 C -7.147,-21.644 -3.02,-10.262 0,0"
             style="fill:#c85a28;fill-opacity:1;fill-rule:evenodd;stroke:none"
             id="path404"
             inkscape:connector-curvature="0" /></g><g
           id="g406"
           transform="translate(532.0576,440.5723)"><path
             d="m 0,0 c 0.932,-14.872 2.738,-31.086 6.39,-45.532 1.881,-7.438 4.113,-14.662 6.463,-21.495 -3.52,2.758 5.154,-8.815 -13.735,12.262 -18.889,21.077 -23.902,56.939 -24.557,59.944 -0.654,3.009 6.132,16.987 6.132,16.987 L 0,0 z"
             style="fill:#b65026;fill-opacity:1;fill-rule:evenodd;stroke:none"
             id="path408"
             inkscape:connector-curvature="0" /></g><g
           id="g410"
           transform="translate(493.7549,515.3384)"><path
             d="m 0,0 c -0.515,-1.858 -1.258,-6.679 -1.807,-11.756 -1.804,-1.575 -3.301,-3.34 -4.045,-5.256 -2.645,-6.809 -8.446,-14.563 -13.493,-17.409 -2.078,-1.178 -5.425,-0.847 -8.595,0.3 l 4.427,1.197 c 0,0 3.54,14.72 4.773,19.469 1.231,4.748 2.014,6.172 2.014,6.172 L 0,0 z"
             style="fill:#d99e8c;fill-opacity:1;fill-rule:evenodd;stroke:none"
             id="path412"
             inkscape:connector-curvature="0" /></g><g
           id="g414"
           transform="translate(452.9336,599.0962)"><path
             d="m 0,0 c -6.332,-10.896 -14.841,-24.168 -13.985,-27.765 0.977,-4.117 2.287,-10.131 1.995,-14.243 -0.286,-4.12 -4.629,-16.465 -0.113,-28.808 0.747,-2.038 1.328,-4.195 1.825,-6.383 2.519,-11.097 2.85,-23.111 11.06,-24.962 20.559,-4.634 53.915,16.255 64.972,33.183 l 6.158,58.95 C 59.315,10.475 17.961,17.042 0,0"
             style="fill:#fbc9b3;fill-opacity:1;fill-rule:evenodd;stroke:none"
             id="path416"
             inkscape:connector-curvature="0" /></g><g
           id="g418"
           transform="translate(452.9336,599.0962)"><path
             d="m 0,0 c -1.086,-1.869 -2.237,-3.808 -3.393,-5.753 3.668,-0.839 20.842,5.959 37.414,3.825 16.575,-2.13 27.359,-5.768 31.669,-10.991 2.399,-2.906 3.959,-7.07 4.905,-9.741 l 0.544,5.221 C 70.741,-14.1 70.233,-10.227 69.804,-7.056 55.225,11.071 17.059,16.184 0,0"
             style="fill:#eeb7a2;fill-opacity:1;fill-rule:evenodd;stroke:none"
             id="path420"
             inkscape:connector-curvature="0" /></g><g
           id="g422"
           transform="translate(439.8623,567.2334)"><path
             d="m 0,0 c 0.704,-3.443 1.285,-7.261 1.081,-10.146 -0.157,-2.295 -1.581,-7.153 -2.021,-13.138 2.143,-0.137 5.282,1.713 8.176,6.305 2.895,4.59 5.603,13.691 6.235,13.849 0.633,0.158 4.822,1.03 7.521,-0.475 2.701,-1.504 5.695,-10.45 5.695,-10.45 0,0 -1.371,-7.596 1.197,-12.268 2.561,-4.671 16.481,-3.163 20.649,0.949 4.164,4.12 7.221,14.089 7.221,14.089 l 15.609,-1.773 2.033,4.734 L 0,0 z"
             style="fill:#e3ac96;fill-opacity:1;fill-rule:evenodd;stroke:none"
             id="path424"
             inkscape:connector-curvature="0" /></g><g
           id="g426"
           transform="translate(445.7256,507.0698)"><path
             d="m 0,0 c 1.424,-5.175 3.558,-9.137 7.99,-10.134 20.559,-4.635 53.915,16.255 64.972,33.182 l 0.319,3.046 C 69.574,25.988 66.305,25.896 66.375,25.896 66.533,25.896 56.807,13.072 44.672,5.478 32.537,-2.123 22.595,-6.238 19.904,-6.394 17.212,-6.555 17.513,-4.179 13.868,-3.388 10.219,-2.597 5.319,-3.369 3.102,-3.072 2.075,-2.932 0.968,-1.391 0,0"
             style="fill:#ebbaa5;fill-opacity:1;fill-rule:evenodd;stroke:none"
             id="path428"
             inkscape:connector-curvature="0" /></g><g
           id="g430"
           transform="translate(531.4951,556.1318)"><path
             d="m 0,0 0,0.004 c 3.803,15.66 4.144,29.758 2.52,35.455 -0.369,1.303 -4.134,4.912 -7.437,5.03 -5.926,19.877 -52.34,17.122 -63.497,54.487 -17.731,-15.405 -18.958,-50.828 -9.826,-53.425 0.832,-0.055 1.337,-0.073 1.337,-0.073 0,0 32.717,6.805 47.645,0.158 14.927,-6.647 19.433,-9.34 19.727,-13.93 0.332,-5.184 -11.77,-31.907 -15.39,-40.363 l 4.297,-3.167 c 0,0 5.439,14.567 10.329,16.78 C -7.105,2.398 -2.691,1.089 0,0"
             style="fill:#a0472c;fill-opacity:1;fill-rule:evenodd;stroke:none"
             id="path432"
             inkscape:connector-curvature="0" /></g><g
           id="g434"
           transform="translate(463.0811,651.1079)"><path
             d="m 0,0 c -17.73,-15.405 -18.958,-50.828 -9.826,-53.425 0.832,-0.055 1.337,-0.073 1.337,-0.073 0,0 32.718,6.805 47.645,0.158 14.927,-6.647 19.433,-9.34 19.727,-13.931 0.332,-5.183 -11.77,-31.906 -15.39,-40.362 l 0.331,-0.243 c 0.935,2.917 3.638,9.682 7.49,16.012 5.358,8.81 12.756,17.565 11.749,25.322 -1,7.754 -6.873,9.498 -18.147,14.721 -11.272,5.223 -18.075,4.274 -23.805,8.703 -5.727,4.436 -7.814,8.394 -8.148,11.242 -0.338,2.85 -1.558,-3.797 -1.703,-5.857 -0.145,-2.06 0.231,-10.13 0.231,-10.13 0,0 -3.649,1.265 -6.052,4.907 -2.397,3.642 -1.518,13.614 -1.368,14.562 0.152,0.95 -0.941,-1.265 -2.5,-4.432 -1.561,-3.163 -1.881,-12.929 -1.325,-14.243 0.557,-1.316 -7.98,9.653 -6.642,22.005 C -5.058,-12.72 0,0 0,0"
             style="fill:#953f27;fill-opacity:1;fill-rule:evenodd;stroke:none"
             id="path436"
             inkscape:connector-curvature="0" /></g><g
           id="g438"
           transform="translate(455.3535,569.9995)"><path
             d="m 0,0 -22.27,1.839 c -3.14,-4.34 -4.444,-27.977 7.614,-25.329 6.483,1.427 12.239,15.673 14.449,16.464 2.21,0.795 2.839,1.108 4.275,-0.158 3.556,-3.141 -0.203,-25.002 20.422,-22.637 9.644,1.108 14.29,15.99 15.707,17.094 1.42,1.11 22.681,-2.804 22.681,-2.804 l 3.197,3.517 -24.329,4.356 c 0,0 0.067,1.663 -1.76,2.53 -1.827,0.873 -29.71,3.881 -31.293,3.959 C 7.11,-1.088 5.219,-1.883 3.873,-1.96 2.526,-2.038 1.93,-1.486 1.609,-1.052 1.29,-0.614 0.292,0 0,0"
             style="fill:#231e1f;fill-opacity:1;fill-rule:evenodd;stroke:none"
             id="path440"
             inkscape:connector-curvature="0" /></g><g
           id="g442"
           transform="translate(444.7363,530.8477)"><path
             d="m 0,0 c 7.574,-4.4 19.56,-5.243 27.887,-3.801 16.442,2.851 22.74,7.913 22.74,7.913 0,0 -1.501,-12.029 -12.846,-19.312 -11.346,-7.276 -22.908,-6.172 -28.143,-4.745 -2.228,0.603 -3.884,1.354 -5.05,2.015 -1.574,0.894 -2.256,1.626 -2.256,1.626 0,0 2.668,3.164 2.481,7.439 C 4.625,-4.592 0,0 0,0"
             style="fill:#711214;fill-opacity:1;fill-rule:evenodd;stroke:none"
             id="path444"
             inkscape:connector-curvature="0" /></g><g
           id="g446"
           transform="translate(449.085,528.8535)"><path
             d="m 0,0 c 7.315,-2.63 16.67,-2.995 23.538,-1.807 9.17,1.59 15.184,3.866 18.712,5.573 C 41.897,2.023 41.313,-0.482 40.72,-1.126 36.622,-5.588 6.934,-7.371 0.532,-3.899 0.011,-3.612 -0.041,-1.655 0,0"
             style="fill:#ffffff;fill-opacity:1;fill-rule:evenodd;stroke:none"
             id="path448"
             inkscape:connector-curvature="0" /></g><g
           id="g450"
           transform="translate(430.0303,367.9473)"><path
             d="M 0,0 -0.769,1.542 -13.72,-25.184 -1.57,-23.389 0,0 z"
             style="fill:#919296;fill-opacity:1;fill-rule:evenodd;stroke:none"
             id="path452"
             inkscape:connector-curvature="0" /></g><g
           id="g454"
           transform="translate(432.8232,351.3428)"><path
             d="M 0,0 C -0.32,-0.303 -10.605,-11.221 -10.605,-11.221 L -3.38,18.892 4.627,12.998 0,0 z"
             style="fill:#cdd0cf;fill-opacity:1;fill-rule:evenodd;stroke:none"
             id="path456"
             inkscape:connector-curvature="0" /></g><g
           id="g458"
           transform="translate(531.7715,268.5264)"><path
             d="m 0,0 c -9.004,9.534 -88.83,57.935 -109.554,71.596 l 15.075,31.332 C -63.79,78.761 -23.311,41.934 9.354,24.27 L 0,0 z"
             style="fill:#e7e6e6;fill-opacity:1;fill-rule:evenodd;stroke:none"
             id="path460"
             inkscape:connector-curvature="0" /></g><g
           id="g462"
           transform="translate(527.1201,272.4414)"><path
             d="m 0,0 c -17.894,13.578 -74.938,48.488 -98.966,63.842 l 11.735,26.498 c 0,0 43.041,-32.922 52.37,-42.398 C -25.534,38.468 7.34,18.729 7.34,18.729 L 0,0 z"
             style="fill:#40a06b;fill-opacity:1;fill-rule:evenodd;stroke:none"
             id="path464"
             inkscape:connector-curvature="0" /></g><g
           id="g466"
           transform="translate(514.2324,281.5059)"><path
             d="M 0,0 C -1.777,1.189 -3.642,2.432 -5.591,3.72 L 16.388,-0.135 15.38,-2.702 0,0 z"
             style="fill:#d0d2d3;fill-opacity:1;fill-rule:evenodd;stroke:none"
             id="path468"
             inkscape:connector-curvature="0" /></g><g
           id="g470"
           transform="translate(465.7598,312.6309)"><path
             d="m 0,0 c -7.038,4.421 -14.681,9.203 -20.867,13.086 -0.067,0.715 11.873,4.334 16.473,3.613 4.599,-0.72 10.222,-3.833 10.222,-3.833 0,0 -1.364,-5.834 -1.522,-6.297 C 4.149,6.113 1.343,1.728 1.128,1.428 0.92,1.125 0.746,0.633 0,0"
             style="fill:#c85a28;fill-opacity:1;fill-rule:evenodd;stroke:none"
             id="path472"
             inkscape:connector-curvature="0" /></g><g
           id="g474"
           transform="translate(469.8203,339.3779)"><path
             d="m 0,0 c -7.059,5.644 -14.38,11.375 -20.014,15.752 -0.173,-0.707 -0.276,-1.367 -0.28,-1.958 -0.023,-3.824 3.042,-2.699 4.065,-8.643 1.022,-5.945 -0.648,-7.571 1.665,-9.336 2.318,-1.765 8.6,-4.531 9.598,-2.303 0.993,2.222 -1.299,2.575 2.494,4.004 C -1.366,-2.071 -0.559,-1.169 0,0"
             style="fill:#26aae1;fill-opacity:1;fill-rule:evenodd;stroke:none"
             id="path476"
             inkscape:connector-curvature="0" /></g><g
           id="g478"
           transform="translate(455.2559,335.1934)"><path
             d="m 0,0 c -2.313,1.765 -0.643,3.391 -1.665,9.336 -1.023,5.943 -4.088,4.818 -4.064,8.643 0.003,0.59 0.107,1.25 0.28,1.958 -5.875,4.553 -9.918,7.651 -9.918,7.651 l -0.952,-2.148 c 3.876,-7.562 7.775,-16.517 9.623,-24.814 0.569,-2.569 0.947,-4.944 1.18,-7.146 4.715,0.827 9.803,1.091 14.514,0.304 2.547,-0.428 4.991,-1.39 7.394,-2.745 L 15.884,3.128 C 15.446,3.479 15.005,3.833 14.564,4.185 14.006,3.016 13.198,2.113 12.093,1.7 8.3,0.271 10.592,-0.081 9.599,-2.304 8.601,-4.531 2.318,-1.766 0,0"
             style="fill:#3ec1ce;fill-opacity:1;fill-rule:evenodd;stroke:none"
             id="path480"
             inkscape:connector-curvature="0" /></g><g
           id="g482"
           transform="translate(513.9932,304.1045)"><path
             d="m 0,0 -1.287,-7.999 19.841,-9.814 1.913,4.879 L 0,0 z"
             style="fill:#c85a28;fill-opacity:1;fill-rule:evenodd;stroke:none"
             id="path484"
             inkscape:connector-curvature="0" /></g><g
           id="g486"
           transform="translate(482.4951,316.4785)"><path
             d="m 0,0 c 0,0 -0.345,-6.136 -1.033,-7.711 -0.684,-1.575 -2.285,-3.928 -2.285,-3.928 l 0.402,-0.912 8.408,-5.341 5.092,8.113 L 0,0 z"
             style="fill:#c85a28;fill-opacity:1;fill-rule:evenodd;stroke:none"
             id="path488"
             inkscape:connector-curvature="0" /></g><g
           id="g490"
           transform="translate(451.7373,321.4297)"><path
             d="M 0,0 -3.443,2.155 C -3.447,3.008 -3.479,3.913 -3.538,4.848 -3.859,4.78 -4.179,4.716 -4.494,4.641 -5.209,4.479 -5.911,4.311 -6.592,4.126 l -4.598,2.892 c 1.809,0.625 3.785,1.193 5.852,1.663 0.457,0.101 0.912,0.205 1.376,0.294 -0.22,1.574 -0.522,3.244 -0.912,5.002 -1.711,7.702 -5.239,15.986 -8.847,23.144 l 1.839,4.158 c 4.135,-7.924 8.413,-17.548 10.399,-26.478 0.405,-1.832 0.721,-3.576 0.954,-5.238 4.336,0.611 8.908,0.736 13.198,0.022 2.088,-0.353 4.104,-1.028 6.067,-1.971 l -0.014,9.82 c 0.784,-0.625 1.564,-1.25 2.335,-1.875 l 0.019,-9.181 c 5.087,-2.974 9.922,-7.526 15.025,-12.332 1.787,-1.675 3.603,-3.383 5.475,-5.067 l 1.976,7.202 1.011,-0.839 c 0.333,-0.273 0.67,-0.543 1.019,-0.823 l -2.003,-7.307 c 3.107,-2.684 6.369,-5.231 9.857,-7.348 1.99,-1.207 4.14,-2.399 6.381,-3.561 -0.142,1.876 -0.183,4.435 0.191,7.373 l 0.059,0.454 c 0.733,-0.492 1.46,-0.979 2.189,-1.455 -0.379,-3.333 -0.188,-6.041 0.011,-7.609 6.471,-3.199 13.441,-6.098 19.267,-8.356 l -1.444,-3.693 c -8.7,3.392 -19.775,8.152 -28.118,13.22 -3.565,2.162 -6.857,4.708 -9.98,7.385 l -4.463,-7.283 -2.114,1.348 4.657,7.607 c -2.083,1.859 -4.097,3.751 -6.07,5.604 -0.768,0.729 -1.533,1.451 -2.291,2.156 -0.023,-1.031 -0.103,-2.244 -0.283,-3.641 -0.342,-2.647 -1.096,-4.62 -2.325,-6.291 -0.24,-0.322 -0.497,-0.64 -0.769,-0.942 l -2.25,1.428 c 0.462,0.434 0.866,0.89 1.225,1.375 0.953,1.294 1.544,2.848 1.816,4.98 0.316,2.429 0.305,4.175 0.227,5.261 -2.869,2.598 -5.681,4.945 -8.522,6.761 -0.867,-4.641 -3.884,-7.931 -6.871,-10.742 l -2.303,1.444 c 3.05,2.809 6.342,6.077 6.979,10.592 C 16.578,4.377 14.5,5.156 12.371,5.518 8.35,6.186 4.023,6.052 -0.092,5.457 0.044,3.492 0.066,1.669 0,0"
             style="fill:#d0d2d3;fill-opacity:1;fill-rule:evenodd;stroke:none"
             id="path492"
             inkscape:connector-curvature="0" /></g><g
           id="g494"
           transform="translate(442.8027,327.0273)"><path
             d="M 0,0 C 1.637,0.5 3.391,0.949 5.223,1.325 5.002,3.479 4.627,5.825 4.061,8.379 2.35,16.081 -1.179,24.365 -4.786,31.523 L -14.648,9.256 C -10.591,6.659 -5.591,3.51 0,0"
             style="fill:#40a06b;fill-opacity:1;fill-rule:evenodd;stroke:none"
             id="path496"
             inkscape:connector-curvature="0" /></g><g
           id="g498"
           transform="translate(468.7197,323.665)"><path
             d="m 0,0 c -0.088,-0.272 -1.655,-3.361 -1.655,-3.361 l -2.678,1.236 1.31,3.074 L 0,0 z"
             style="fill:#a0472c;fill-opacity:1;fill-rule:evenodd;stroke:none"
             id="path500"
             inkscape:connector-curvature="0" /></g><g
           id="g502"
           transform="translate(462.2598,325.4971)"><path
             d="M 0,0 -0.467,-3.804 -3.714,-3.693 -3.872,0.109 0,0 z"
             style="fill:#a0472c;fill-opacity:1;fill-rule:evenodd;stroke:none"
             id="path504"
             inkscape:connector-curvature="0" /></g><g
           id="g506"
           transform="translate(456.0293,325.6748)"><path
             d="M 0,0 0.103,-3.946 -2.813,-4.1 -3.182,-0.105 0,0 z"
             style="fill:#a0472c;fill-opacity:1;fill-rule:evenodd;stroke:none"
             id="path508"
             inkscape:connector-curvature="0" /></g><g
           id="g510"
           transform="translate(483.8057,308.4453)"><path
             d="M 0,0 2.592,0.367 2.961,-2.15 0.37,-2.511 0,0 z"
             style="fill:#a34623;fill-opacity:1;fill-rule:evenodd;stroke:none"
             id="path512"
             inkscape:connector-curvature="0" /></g><g
           id="g514"
           transform="translate(483.0586,304.2939)"><path
             d="M 0,0 4.499,0.634 4.811,-1.5 0.313,-2.126 0,0 z"
             style="fill:#a34623;fill-opacity:1;fill-rule:evenodd;stroke:none"
             id="path516"
             inkscape:connector-curvature="0" /></g><g
           id="g518"
           transform="translate(515.5674,299.6084)"><path
             d="M 0,0 3.182,-0.979 2.73,-3.509 -0.455,-2.53 0,0 z"
             style="fill:#a34623;fill-opacity:1;fill-rule:evenodd;stroke:none"
             id="path520"
             inkscape:connector-curvature="0" /></g><g
           id="g522"
           transform="translate(521.7588,297.3125)"><path
             d="M 0,0 3.591,-1.397 2.914,-4.206 -0.677,-2.803 0,0 z"
             style="fill:#a34623;fill-opacity:1;fill-rule:evenodd;stroke:none"
             id="path524"
             inkscape:connector-curvature="0" /></g><g
           id="g526"
           transform="translate(538.3027,425.6519)"><path
             d="m 0,0 c 23.815,-57.625 8.66,-63.378 -26.317,-94.535 -6.244,-0.999 -12.33,-0.066 -16.727,-2.471 -4.398,-2.406 -15.852,-19.385 -17.262,-21.602 -1.409,-2.212 -1.236,-4.272 1.472,-6.646 2.708,-2.378 3.732,-1.621 4.534,-3.209 0.804,-1.583 2.957,-4.077 4.54,-3.915 1.582,0.155 1.838,-2.693 4.223,-4.038 2.383,-1.347 2.936,-1.104 3.729,-1.266 0.792,-0.154 1.912,-2.214 4.529,-2.773 2.615,-0.551 11.23,6.929 15.276,11.004 4.051,4.078 8.306,12.706 9.215,16.642 63.463,61.583 50.327,44.684 37.258,121.991 L 0,0 z"
             style="fill:#fbc9b3;fill-opacity:1;fill-rule:evenodd;stroke:none"
             id="path528"
             inkscape:connector-curvature="0" /></g><g
           id="g530"
           transform="translate(477.2686,303.4414)"><path
             d="m 0,0 c 0.283,-0.979 0.985,-1.979 2.2,-3.044 2.708,-2.378 3.733,-1.62 4.534,-3.209 0.804,-1.583 2.957,-4.076 4.54,-3.915 1.582,0.155 1.838,-2.692 4.223,-4.037 2.383,-1.348 2.937,-1.105 3.73,-1.267 0.792,-0.154 1.912,-2.214 4.528,-2.772 2.615,-0.552 11.23,6.929 15.276,11.004 4.051,4.078 8.306,12.706 9.215,16.641 63.463,61.583 50.327,44.685 37.258,121.991 L 79.658,129.2 C 82.922,114.508 86.519,97.253 87.711,87.633 90.062,68.639 89.498,58.507 81.494,48.533 73.49,38.565 45.336,13.39 45.336,13.39 c 0,0 -2.442,-12.33 -5.658,-16.693 -3.214,-4.348 -14.397,-13.138 -15.662,-13.301 -1.266,-0.162 -1.523,2.611 -3.344,2.846 -1.82,0.243 -4.274,0.318 -5.551,1.825 -1.279,1.5 -2.232,2.215 -3.983,3.48 C 9.387,-7.188 9.982,-5.554 8.263,-4.341 6.541,-3.119 1.574,-0.912 0,0"
             style="fill:#ebbaa5;fill-opacity:1;fill-rule:evenodd;stroke:none"
             id="path532"
             inkscape:connector-curvature="0" /></g><g
           id="g534"
           transform="translate(522.2031,329.3604)"><path
             d="M 0,0 C -0.201,0.117 9.628,-12.029 9.628,-12.029 L 4.407,-16.884 -10.652,1.69 -6.1,6.09 0,0 z"
             style="fill:#33444f;fill-opacity:1;fill-rule:evenodd;stroke:none"
             id="path536"
             inkscape:connector-curvature="0" /></g><g
           id="g538"
           transform="translate(513.876,551.8652)"><path
             d="m 0,0 c 0.076,0.478 4.474,5.223 8.736,6.886 4.263,1.662 8.06,2.218 11.41,-1.74 6.095,-7.199 -6.118,-25.973 -15.413,-27.051 -3.547,-0.412 -7.683,2.439 -8.566,4.418 C -4.72,-15.508 0,0 0,0"
             style="fill:#fbc9b3;fill-opacity:1;fill-rule:evenodd;stroke:none"
             id="path540"
             inkscape:connector-curvature="0" /></g><g
           id="g542"
           transform="translate(517.8242,550.0557)"><path
             d="m 0,0 c 0.562,0.706 5.296,5.429 8.394,4.671 3.095,-0.757 4.204,-3.539 3.518,-6.937 -0.683,-3.4 -6.569,-10.852 -8.662,-11.517 -2.09,-0.666 -5.355,0.894 -5.94,3.299 -0.581,2.41 1.265,1.559 2.454,3.682 1.187,2.127 0.901,2.976 -0.101,4.183 C -1.337,-1.42 0,0 0,0"
             style="fill:#c08c74;fill-opacity:1;fill-rule:evenodd;stroke:none"
             id="path544"
             inkscape:connector-curvature="0" /></g><g
           id="g546"
           transform="translate(522.9648,554.0981)"><path
             d="M 0,0 C 1.125,0.559 2.271,0.872 3.253,0.628 6.349,-0.129 7.457,-2.91 6.771,-6.308 6.113,-9.579 0.647,-16.593 -1.63,-17.719 c 1.189,1.559 2.58,3.509 3.623,5.48 2.48,4.664 2.878,7.677 1.514,10.366 C 2.962,-0.806 1.556,-0.232 0,0"
             style="fill:#b7816b;fill-opacity:1;fill-rule:evenodd;stroke:none"
             id="path548"
             inkscape:connector-curvature="0" /></g><g
           id="g550"
           transform="translate(454.7236,537.4351)"><path
             d="m 0,0 c -0.003,0.633 -2.622,1.265 -4.683,1.82 -1.269,0.339 -3.883,0.743 -5.634,0.869 l 8.254,18.631 c -0.468,-0.711 -9.992,-18.716 -9.992,-18.716 -0.01,-0.022 -0.008,-0.048 0.008,-0.069 0.32,-0.556 2.311,-2.457 3.661,-2.929 C -7.037,-0.872 0,0 0,0"
             style="fill:#c08c74;fill-opacity:1;fill-rule:evenodd;stroke:none"
             id="path552"
             inkscape:connector-curvature="0" /></g><g
           id="g554"
           transform="translate(497.1064,537.3208)"><path
             d="M 0,0 C 1.089,-6.728 -2.075,-12.662 -1.892,-12.584 3.09,-10.483 6.355,1.184 0,0"
             style="fill:#ebbaa5;fill-opacity:1;fill-rule:evenodd;stroke:none"
             id="path556"
             inkscape:connector-curvature="0" /></g><g
           id="g558"
           transform="translate(448.6133,513.3452)"><path
             d="m 0,0 c 0.214,-0.132 0.449,-0.276 0.711,-0.427 1.166,-0.662 2.822,-1.412 5.05,-2.016 5.235,-1.427 16.797,-2.531 28.143,4.746 0.386,0.25 0.761,0.507 1.129,0.765 C 15.428,1.298 12.842,1.976 -0.272,4.384 -0.278,4.366 -0.011,0.339 0,0"
             style="fill:#ffffff;fill-opacity:1;fill-rule:evenodd;stroke:none"
             id="path560"
             inkscape:connector-curvature="0" /></g><g
           id="g562"
           transform="translate(485.7656,561.6201)"><path
             d="M 0,0 C 0.275,-0.029 5.34,-1.022 5.374,-0.736 5.405,-0.445 6.157,-2.494 3.995,-6.142 1.829,-9.795 -2.547,-10.998 -2.547,-10.998 -1.541,-9.479 0.75,-3.093 0,0"
             style="fill:#585a5c;fill-opacity:1;fill-rule:evenodd;stroke:none"
             id="path564"
             inkscape:connector-curvature="0" /></g><g
           id="g566"
           transform="translate(445.8311,566.3687)"><path
             d="M 0,0 C 0.205,-0.033 3.976,-1.022 3.997,-0.732 4.019,-0.444 4.585,-2.494 2.981,-6.146 1.378,-9.795 -1.874,-10.998 -1.874,-10.998 -1.135,-9.479 0.562,-3.093 0,0"
             style="fill:#585a5c;fill-opacity:1;fill-rule:evenodd;stroke:none"
             id="path568"
             inkscape:connector-curvature="0" /></g><g
           id="g570"
           transform="translate(511.0879,487.5669)"><path
             d="M 0,0 C -0.146,-1.427 -8.935,-18.274 -8.935,-18.274 L -17.273,-2.619 -5.802,3.402 0,0 z"
             style="fill:#a04523;fill-opacity:1;fill-rule:evenodd;stroke:none"
             id="path572"
             inkscape:connector-curvature="0" /></g><g
           id="g574"
           transform="translate(493.8145,484.9478)"><path
             d="M 0,0 C 1.63,-1.427 16.218,-15.979 16.218,-15.979 L 21.146,4.532 14.835,11.955 0,0 z"
             style="fill:#bd5327;fill-opacity:1;fill-rule:evenodd;stroke:none"
             id="path576"
             inkscape:connector-curvature="0" /></g><g
           id="g578"
           transform="translate(459.2148,485.8315)"><path
             d="M 0,0 -10.424,-2.535 -17.848,-16.465 -2.12,-6.938 0,0 z"
             style="fill:#a34623;fill-opacity:1;fill-rule:evenodd;stroke:none"
             id="path580"
             inkscape:connector-curvature="0" /></g><g
           id="g582"
           transform="translate(455.0479,471.1875)"><path
             d="M 0,0 -6.257,12.109 10.95,19.532 12.612,19.771 12.388,10.472 9.686,9.721 0,0 z"
             style="fill:#bd5327;fill-opacity:1;fill-rule:evenodd;stroke:none"
             id="path584"
             inkscape:connector-curvature="0" /></g><g
           id="g586"
           transform="translate(537.9697,491.1567)"><path
             d="M 0,0 C -4.745,1.773 -19.095,5.15 -22.64,0.795 -48.107,-30.465 -9.166,-95.271 6.981,-117.729 L 7.85,-96.763 C -6.184,-76.094 -24.314,-40.694 -14.137,-15.67 -10.403,-6.489 0,0 0,0"
             style="fill:#a0472c;fill-opacity:1;fill-rule:evenodd;stroke:none"
             id="path588"
             inkscape:connector-curvature="0" /></g><g
           id="g590"
           transform="translate(537.9697,491.1567)"><path
             d="m 0,0 c -4.745,1.773 -19.095,5.15 -22.64,0.795 -14.595,-17.922 -11.666,-48.12 -0.365,-73.785 2.081,0.106 8.825,1.457 11.137,3.204 2.311,1.744 2.516,1.434 3.389,2.35 -7.527,17.314 -11.878,36.476 -5.658,51.766 C -10.403,-6.489 0,0 0,0"
             style="fill:#792f18;fill-opacity:1;fill-rule:evenodd;stroke:none"
             id="path592"
             inkscape:connector-curvature="0" /></g><g
           id="g594"
           transform="translate(539.7383,491.6094)"><path
             d="m 0,0 c -3.486,0.953 -12.672,1.585 -19.274,-5.065 -6.604,-6.651 8.107,-72.493 8.107,-72.493 l 40.414,15.192 c 0,0 -16.129,43.058 -20.616,50.97 C 4.143,-3.483 0,0 0,0"
             style="fill:#c85a28;fill-opacity:1;fill-rule:evenodd;stroke:none"
             id="path596"
             inkscape:connector-curvature="0" /></g><g
           id="g598"
           transform="translate(539.7383,491.6094)"><path
             d="m 0,0 c -1.478,0.401 -3.986,0.747 -6.889,0.504 1.614,-1.439 3.336,-3.546 5.149,-6.536 9.653,-15.895 18.798,-53.069 20.516,-60.271 l 10.471,3.937 c 0,0 -16.129,43.058 -20.616,50.97 C 4.139,-3.483 0,0 0,0"
             style="fill:#b65026;fill-opacity:1;fill-rule:evenodd;stroke:none"
             id="path600"
             inkscape:connector-curvature="0" /></g></g></g><g
       id="g606"
       transform="matrix(-1,0,0,1,839.66833,67.72075)" /><g
       id="g862"
       transform="matrix(-1,0,0,1,839.66833,67.72075)"><g
         id="g864"
         clip-path="url(#clipPath866)"><g
           id="g910"
           transform="translate(372.4131,105.4043)"><path
             d="m 0,0 c 34.334,-0.316 37.449,-15.294 38.545,-34.504 l -76.609,0 C -37.237,-15.294 -34.334,0.315 0,0"
             style="fill:#603a17;fill-opacity:1;fill-rule:evenodd;stroke:none"
             id="path912"
             inkscape:connector-curvature="0" /></g><g
           id="g914"
           transform="translate(410.958,70.9004)"><path
             d="m 0,0 c -0.103,1.84 -0.353,3.644 -0.738,5.4 l -75.209,0 C -76.309,3.644 -76.532,1.84 -76.609,0 L 0,0 z"
             style="fill:#3b2416;fill-opacity:1;fill-rule:evenodd;stroke:none"
             id="path916"
             inkscape:connector-curvature="0" /></g><g
           id="g918"
           transform="translate(519.9531,105.4043)"><path
             d="m 0,0 c 33.245,0.315 38.64,-15.294 39.771,-34.504 l -79.053,0 C -38.421,-15.294 -33.242,-0.316 0,0"
             style="fill:#603a17;fill-opacity:1;fill-rule:evenodd;stroke:none"
             id="path920"
             inkscape:connector-curvature="0" /></g><g
           id="g922"
           transform="translate(481.1895,77.4717)"><path
             d="m 0,0 c -0.526,-2.112 -0.418,-4.327 -0.519,-6.571 l 79.053,0 c -0.118,2.001 -0.412,3.959 -0.868,5.857 L 0,0 z"
             style="fill:#3b2416;fill-opacity:1;fill-rule:evenodd;stroke:none"
             id="path924"
             inkscape:connector-curvature="0" /></g><g
           id="g926"
           transform="translate(521.4531,332.5449)"><path
             d="m 0,0 c 4.341,0 7.884,-3.56 7.912,-7.953 0.033,-4.399 -3.461,-7.96 -7.799,-7.96 -4.339,0 -7.882,3.561 -7.911,7.96 C -7.83,-3.56 -4.336,0 0,0"
             style="fill:#5d7681;fill-opacity:1;fill-rule:evenodd;stroke:none"
             id="path928"
             inkscape:connector-curvature="0" /></g><g
           id="g930"
           transform="translate(521.4727,330.2344)"><path
             d="m 0,0 c 3.077,0 5.594,-2.522 5.616,-5.643 0.019,-3.119 -2.462,-5.65 -5.539,-5.65 -3.079,0 -5.596,2.531 -5.614,5.65 C -5.563,-2.522 -3.084,0 0,0"
             style="fill:#3e515a;fill-opacity:1;fill-rule:evenodd;stroke:none"
             id="path932"
             inkscape:connector-curvature="0" /></g><g
           id="g934"
           transform="translate(459.6719,424.8794)"><path
             d="M 0,0 3.527,-0.526 C 4.424,-0.662 5.054,-1.5 4.924,-2.398 L 3.56,-11.991 c -0.125,-0.898 -0.963,-1.52 -1.862,-1.384 l -3.53,0.523 c -0.895,0.132 -1.522,0.978 -1.394,1.876 l 1.365,9.586 C -1.734,-0.492 -0.898,0.132 0,0"
             style="fill:#d0d2d3;fill-opacity:1;fill-rule:evenodd;stroke:none"
             id="path936"
             inkscape:connector-curvature="0" /></g></g></g></g></svg>