<?xml version="1.0" encoding="utf-8"?>
<!-- Generator: Adobe Illustrator 18.1.1, SVG Export Plug-In . SVG Version: 6.00 Build 0)  -->
<svg version="1.1" id="Warstwa_1" xmlns="http://www.w3.org/2000/svg" xmlns:xlink="http://www.w3.org/1999/xlink" x="0px" y="0px"
	 width="510.2px" height="368.5px" viewBox="0 0 510.2 368.5" enable-background="new 0 0 510.2 368.5" xml:space="preserve">
<path fill="#FFFFFF" d="M392.3,146.3H123c-9.2,0-14.9,5.7-14.9,14.9v130.3h29.7V180.4c0-2.4,2-4.4,4.4-4.4h19.2c2.4,0,4.4,2,4.4,4.4
	v115.4c0,9.2,5.7,14.9,14.9,14.9h19.2c2.4,0,4.4,2,4.4,4.4v53.3H234V315c0-2.4,2-4.4,4.4-4.4h38.5c2.4,0,4.4,2,4.4,4.4v53.3H311V315
	c0-2.4,2-4.4,4.4-4.4h19.2c9.2,0,14.9-5.7,14.9-14.9V180.4c0-2.4,2-4.4,4.4-4.4h19.2c2.4,0,4.4,2,4.4,4.4v111.1h29.7V161.1
	C407.2,151.9,401.5,146.3,392.3,146.3z M319.8,276.6c0,2.4-2,4.4-4.4,4.4H199.9c-2.4,0-4.4-2-4.4-4.4v-96.2c0-2.4,2-4.4,4.4-4.4
	h115.4c2.4,0,4.4,2,4.4,4.4V276.6z"/>
<path fill="#FFFFFF" d="M180.6,51.8c-9.5,15.2-14.7,33.5-14.7,51.5c0,9.2,5.7,14.9,14.9,14.9h153.9c9.2,0,14.9-5.7,14.9-14.9
	c0-18-5.2-36.4-14.7-51.5c-1.1-1.7-0.8-4,0.6-5.4l25.8-25.8L340.4-0.1l-25.8,25.8c-1.4,1.4-3.7,1.7-5.4,0.6
	c-15.2-9.5-33.5-14.7-51.5-14.7c-18,0-36.4,5.2-51.5,14.7c-1.7,1.1-4,0.8-5.4-0.6L174.9-0.1l-20.7,20.7L180,46.4
	C181.4,47.9,181.7,50.1,180.6,51.8z M199.6,82.8c8.4-25.2,31.2-41.5,58-41.5s49.6,16.3,58,41.5c0.4,1.3,0.2,2.8-0.6,4
	c-0.8,1.1-2.1,1.8-3.6,1.8H203.8c-1.4,0-2.7-0.7-3.6-1.8C199.4,85.6,199.2,84.1,199.6,82.8z"/>
</svg>
