<?xml version="1.0" encoding="utf-8"?>
<!-- Generator: Adobe Illustrator 19.2.0, SVG Export Plug-In . SVG Version: 6.00 Build 0)  -->
<svg version="1.1" id="Warstwa_1" xmlns="http://www.w3.org/2000/svg" xmlns:xlink="http://www.w3.org/1999/xlink" x="0px" y="0px"
	 viewBox="0 0 24 24" style="enable-background:new 0 0 24 24;" xml:space="preserve">
<style type="text/css">
	.st0{fill:#FFFFFF;}
</style>
<g id="Solid">
	<g>
		<path class="st0" d="M19,10H5c-0.6,0-1,0.4-1,1v7h2v-6h1v6c0,0.6,0.4,1,1,1h1v3h2v-3h2v3h2v-3h1c0.6,0,1-0.4,1-1v-6h1v6h2v-7
			C20,10.4,19.6,10,19,10z M15,17H9v-5h6V17z"/>
		<path class="st0" d="M7,8c0,0.6,0.4,1,1,1h8c0.6,0,1-0.4,1-1c0-1-0.3-2-0.8-2.8l1.5-1.5l-1.4-1.4l-1.5,1.5C14,3.3,13,3,12,3
			s-2,0.3-2.8,0.8L7.7,2.3L6.3,3.7l1.5,1.5C7.3,6,7,7,7,8z M12,5c1.3,0,2.4,0.8,2.8,2H9.2C9.6,5.8,10.7,5,12,5z"/>
	</g>
</g>
</svg>
