<?xml version="1.0" encoding="utf-8"?>
<!-- Generator: Adobe Illustrator 19.2.0, SVG Export Plug-In . SVG Version: 6.00 Build 0)  -->
<svg version="1.1" id="Warstwa_1" xmlns="http://www.w3.org/2000/svg" xmlns:xlink="http://www.w3.org/1999/xlink" x="0px" y="0px"
	 viewBox="0 0 24 24" style="enable-background:new 0 0 24 24;" xml:space="preserve">
<style type="text/css">
	.st0{fill:#FFFFFF;}
</style>
<g id="Outline">
	<g>
		<path class="st0" d="M17,5c-0.4,0-0.8,0.3-1,0.7l-1,3.3H11V3c0-0.6-0.4-1-1-1H9C5.7,2,3,4.7,3,8c0,0.3,0,1.7,0,2
			c0,0.1,0,0.2,0,0.3l2,6C5.2,16.7,5.6,17,6,17h8c0.4,0,0.8-0.3,1-0.7L17.7,7H21V5H17z M5,8c0-0.5,0.1-0.9,0.2-1.3L7.6,9H5V8z
			 M9,7.6L6.4,5C7.1,4.4,8,4,9,4V7.6z M13.3,15H6.7l-1.3-4h9.1L13.3,15z"/>
		<circle class="st0" cx="7" cy="20" r="2"/>
		<circle class="st0" cx="13" cy="20" r="2"/>
	</g>
</g>
</svg>
