<?xml version="1.0" encoding="utf-8"?>
<!-- Generator: Adobe Illustrator 18.1.1, SVG Export Plug-In . SVG Version: 6.00 Build 0)  -->
<svg version="1.1" id="Warstwa_1" xmlns="http://www.w3.org/2000/svg" xmlns:xlink="http://www.w3.org/1999/xlink" x="0px" y="0px"
	 width="510.2px" height="368.5px" viewBox="0 0 510.2 368.5" enable-background="new 0 0 510.2 368.5" xml:space="preserve">
<g>
	<path fill="#FFFFFF" d="M161,305.5c-17.4,0-31.5,14.1-31.5,31.5s14.1,31.5,31.5,31.5s31.5-14.1,31.5-31.5S178.4,305.5,161,305.5z"
		/>
	<path fill="#FFFFFF" d="M275.6,305.5c-17.4,0-31.5,14.1-31.5,31.5s14.1,31.5,31.5,31.5s31.5-14.1,31.5-31.5
		C307,319.6,292.9,305.5,275.6,305.5z"/>
</g>
<path fill="#FFFFFF" d="M419.6,57.3h-67.7c-4.5,0-9.8,3.7-12.7,9l-0.1,0.2l-0.1,0.2l-18.9,62.2c-0.8,2.8-3.4,4.7-6.4,4.7h-76.3
	c-3.7,0-6.8-3-6.8-6.8V12.4C230.6,4.6,226,0,218.2,0h-19.1c-28.7,0-55.7,11.2-76.2,31.7C102.5,52.2,91.2,79.3,91.2,108v38.2v4.3v0.3
	l0.1,0.3L129,263.5l0.1,0.2l0.1,0.1c2.8,5.4,8.1,9.1,12.8,9.1h152.8c4.5,0,9.8-3.7,12.7-9l0.1-0.2l0.1-0.2L359,86.8
	c0.8-2.8,3.5-4.8,6.4-4.8h54.3h2v-2V59.3v-2H419.6z M207.9,31.5v68.7h0c0,0,0,0,0,0v0h-0.1V31.4c0-1.8-0.5-3.4-1.5-4.8
	C207.3,28,207.9,29.7,207.9,31.5z M116.1,126.9v-19.1c0-10.2,2-18.2,3.9-26l0.1-0.4c0.6-2.3,2.4-4.1,4.7-4.8c0,0,0.1,0,0.1,0
	c0.6-0.1,1.1-0.2,1.7-0.2c0,0,0,0,0,0c1.6,0,3.3,0.7,4.7,1.9l45.7,43.8c2,1.9,2.6,4.8,1.6,7.4c-1,2.5-3.5,4.2-6.2,4.2h-49.5
	C119.1,133.7,116.1,130.7,116.1,126.9z M179.6,129.8c0.9-2.2,0.7-4.6-0.4-6.6C180.3,125.2,180.5,127.6,179.6,129.8z M115.1,126.9
	c0,4.2,3.5,7.7,7.8,7.7C118.6,134.6,115.1,131.2,115.1,126.9z M205.8,31.5v68.6c0,2.7-1.6,5.1-4.1,6.2c-1,0.4-1.8,0.6-2.6,0.6
	c-1.8,0-3.5-0.7-4.8-2l-49.5-49.5c-1.3-1.3-2.1-3.2-2-4.9c0.2-2,1-3.8,2.4-5c15.5-13.3,34.7-20.6,54-20.6c2.1,0,4.1,1,5.3,2.6
	C205.4,28.6,205.8,30,205.8,31.5z M206.9,100.2h-0.2V31.4c0-2.5-1.2-4.8-3.2-6.2c2,1.4,3.4,3.7,3.4,6.3V100.2z M315.1,170.8
	L292,247.7c-0.8,2.9-3.5,4.8-6.5,4.8H158.6c-3,0-5.6-1.9-6.4-4.7l0,0l0,0l-25-76.9c-0.7-2.1-0.3-4.3,0.9-6.1
	c1.2-1.7,3.2-2.7,5.5-2.7h175c2.2,0,4.2,1,5.4,2.7C315.3,166.5,315.7,168.8,315.1,170.8z"/>
</svg>
