<?xml version="1.0" encoding="utf-8"?>
<!-- Generator: Adobe Illustrator 19.2.0, SVG Export Plug-In . SVG Version: 6.00 Build 0)  -->
<svg version="1.1" id="Warstwa_1" xmlns="http://www.w3.org/2000/svg" xmlns:xlink="http://www.w3.org/1999/xlink" x="0px" y="0px"
	 viewBox="0 0 24 24" style="enable-background:new 0 0 24 24;" xml:space="preserve">
<style type="text/css">
	.st0{fill:#FFFFFF;}
</style>
<g id="Outline">
	<g>
		<path class="st0" d="M18,5h-2V3c0-0.6-0.4-1-1-1H9C8.4,2,8,2.4,8,3v2H6C5.4,5,5,5.4,5,6v14c0,1.1,0.9,2,2,2h10c1.1,0,2-0.9,2-2V6
			C19,5.4,18.6,5,18,5z M7,20V7h2c0.6,0,1-0.4,1-1V4h4v2c0,0.6,0.4,1,1,1h2l0,13H7z"/>
		<polygon class="st0" points="13,8 8,14 11,14 11,18 16,12 13,12 		"/>
	</g>
</g>
</svg>
