<?xml version="1.0" encoding="utf-8"?>
<!-- Generator: Adobe Illustrator 19.2.0, SVG Export Plug-In . SVG Version: 6.00 Build 0)  -->
<svg version="1.1" id="Warstwa_1" xmlns="http://www.w3.org/2000/svg" xmlns:xlink="http://www.w3.org/1999/xlink" x="0px" y="0px"
	 viewBox="0 0 24 24" style="enable-background:new 0 0 24 24;" xml:space="preserve">
<style type="text/css">
	.st0{fill:#FFFFFF;}
</style>
<g id="Outline">
	<path class="st0" d="M22,16.7L18.3,4.9C18,3.8,16.9,3,15.7,3C14.2,3,13,4.2,13,5.7V7h-2V5.7C11,4.2,9.8,3,8.3,3
		C7.1,3,6,3.8,5.7,4.9L2,16.7c0,0.1,0,0.2,0,0.3v0.5C2,20,4,22,6.5,22s4.5-2,4.5-4.5V13h2v4.5c0,2.5,2,4.5,4.5,4.5s4.5-2,4.5-4.5V17
		C22,16.9,22,16.8,22,16.7z M6.5,20C5.1,20,4,18.9,4,17.5S5.1,15,6.5,15S9,16.1,9,17.5S7.9,20,6.5,20z M9,13.8
		C8.3,13.3,7.4,13,6.5,13c-0.5,0-0.9,0.1-1.3,0.2l2.4-7.7C7.7,5.2,8,5,8.3,5C8.7,5,9,5.3,9,5.7V7v6V13.8z M11,11V9h2v2H11z M15,7
		V5.7C15,5.3,15.3,5,15.7,5c0.3,0,0.6,0.2,0.7,0.5l2.4,7.7C18.4,13.1,18,13,17.5,13c-0.9,0-1.8,0.3-2.5,0.8V13V7z M17.5,20
		c-1.4,0-2.5-1.1-2.5-2.5s1.1-2.5,2.5-2.5s2.5,1.1,2.5,2.5S18.9,20,17.5,20z"/>
</g>
</svg>
