<?xml version="1.0" encoding="utf-8"?>
<!-- Generator: Adobe Illustrator 18.1.1, SVG Export Plug-In . SVG Version: 6.00 Build 0)  -->
<svg version="1.1" id="Warstwa_1" xmlns="http://www.w3.org/2000/svg" xmlns:xlink="http://www.w3.org/1999/xlink" x="0px" y="0px"
	 width="510.2px" height="368.5px" viewBox="0 0 510.2 368.5" enable-background="new 0 0 510.2 368.5" xml:space="preserve">
<path fill="#FFFFFF" d="M255.5,368.2c-49,0-95.3-19.2-130.2-54.2c-34.9-34.9-54.2-81.2-54.2-130.2c0-49,19.2-95.3,54.2-130.2
	c34.9-34.9,81.2-54.2,130.2-54.2c49,0,95.3,19.2,130.2,54.2c34.9,34.9,54.2,81.2,54.2,130.2s-19.2,95.3-54.2,130.2
	C350.8,349,304.5,368.2,255.5,368.2z M224.2,300.9c-1.1,0-2.1,0.5-2.8,1.4c-0.9,1.2-1,2.9-0.2,4.1l23.5,36c0.7,1,1.8,1.6,3,1.6h15.7
	c1.2,0,2.3-0.6,3-1.6l23.5-36c0.8-1.2,0.8-2.9-0.1-4.1c-0.7-0.9-1.8-1.5-2.9-1.5c-0.3,0-0.7,0-1,0.1c-11.2,3.2-20.3,4.6-30.3,4.6
	c-10.9,0-21.3-1.6-30.2-4.5C224.9,301,224.5,300.9,224.2,300.9z M120.8,258.6c-1.3,0-2.4,0.7-3.1,1.8c-0.6,1.1-0.6,2.5,0,3.6
	c19.3,33.8,50,59.4,86.5,72.1c0.4,0.1,0.8,0.2,1.2,0.2c1.1,0,2.1-0.5,2.8-1.4c0.9-1.2,1-2.9,0.1-4.2c-1.5-2.3-4.7-7.2-8.8-13.4
	C186.2,296.9,166,266,161.2,260c-0.7-0.8-1.7-1.3-2.8-1.3H120.8z M352.6,258.6c-1.2,0-2.3,0.6-3,1.6l-47,70.5
	c-0.9,1.3-0.8,3,0.1,4.2c0.7,0.9,1.7,1.4,2.8,1.4c0.4,0,0.8-0.1,1.2-0.2c36.5-12.7,67.2-38.3,86.5-72.1c0.6-1.1,0.6-2.5,0-3.6
	s-1.8-1.8-3.1-1.8H352.6z M255.5,86.4c-53.8,0-97.5,43.8-97.5,97.5s43.8,97.5,97.5,97.5s97.5-43.8,97.5-97.5S309.3,86.4,255.5,86.4z
	 M371.4,133.3c-1.2,0-2.3,0.6-3,1.6c-0.7,1-0.8,2.3-0.3,3.4c6,13.6,9.1,28.9,9.1,45.5c0,16.6-3.1,32-9.1,45.5
	c-0.5,1.1-0.4,2.4,0.3,3.4c0.7,1,1.8,1.6,3,1.6h32.9c1.5,0,2.9-1,3.4-2.4c5.1-15.3,8-32.8,8-48.1s-2.9-32.8-8-48.1
	c-0.5-1.5-1.8-2.4-3.4-2.4H371.4z M106.7,133.3c-1.5,0-2.9,1-3.4,2.4c-5.1,15.3-8,32.8-8,48.1s2.9,32.8,8,48.1
	c0.5,1.5,1.9,2.4,3.4,2.4h32.9c1.2,0,2.3-0.6,3-1.6c0.7-1,0.8-2.3,0.3-3.4c-6-13.6-9.1-28.9-9.1-45.5c0-16.6,3.1-32,9.1-45.5
	c0.5-1.1,0.4-2.4-0.3-3.4c-0.7-1-1.8-1.6-3-1.6H106.7z M305.6,31.5c-1.1,0-2.1,0.5-2.8,1.4c-0.9,1.2-1,2.9-0.1,4.2
	c1.5,2.3,4.7,7.2,8.8,13.4c13.4,20.4,33.5,51.3,38.4,57.4c0.7,0.8,1.7,1.3,2.8,1.3h37.6c1.3,0,2.4-0.7,3.1-1.8
	c0.6-1.1,0.6-2.5,0-3.6c-19.3-33.8-50-59.4-86.5-72.1C306.4,31.6,306,31.5,305.6,31.5z M205.4,31.5c-0.4,0-0.8,0.1-1.2,0.2
	C167.7,44.4,137,70,117.7,103.8c-0.6,1.1-0.6,2.5,0,3.6c0.6,1.1,1.8,1.8,3.1,1.8h37.6c1.1,0,2.1-0.5,2.8-1.3
	c4.8-6.1,25-36.9,38.4-57.4c4.1-6.2,7.3-11.1,8.8-13.4c0.9-1.3,0.8-3-0.1-4.2C207.5,32,206.4,31.5,205.4,31.5z M255.5,62.2
	c10.1,0,19.1,1.4,30.3,4.6c0.3,0.1,0.7,0.1,1,0.1c1.1,0,2.2-0.5,2.9-1.5c0.9-1.2,0.9-2.8,0.1-4.1l-23.5-36c-0.7-1-1.8-1.6-3-1.6
	h-15.7c-1.2,0-2.3,0.6-3,1.6l-23.5,36c-0.8,1.2-0.8,2.9,0.1,4.1c0.7,0.9,1.8,1.5,2.9,1.5c0.3,0,0.7,0,1-0.1
	C236.3,63.5,245.4,62.2,255.5,62.2z"/>
<path fill="#FFFFFF" d="M243.4,258.6v-12.1c0-2-1.6-3.6-3.6-3.6h-27.8V124.8h27.8c2,0,3.6-1.6,3.6-3.6v-12.1h24.2v15.2
	c0,1.7,1.2,3.2,2.9,3.5c16.2,2.9,28.4,17.6,28.4,34.1c0,7.9-2.4,15.1-7.1,21.3c-1,1.3-1,3,0,4.3c4.7,6.3,7.1,13.5,7.1,21.3
	c0,16.5-12.2,31.1-28.4,34.1c-1.7,0.3-2.9,1.8-2.9,3.5v12.1H243.4z M239.8,196c-2,0-3.6,1.6-3.6,3.6v15.7c0,2,1.6,3.6,3.6,3.6h23.5
	c6.7,0,11.4-4.7,11.4-11.4S270,196,263.3,196H239.8z M239.8,149c-2,0-3.6,1.6-3.6,3.6v15.7c0,2,1.6,3.6,3.6,3.6h23.5
	c6.7,0,11.4-4.7,11.4-11.4c0-6.7-4.7-11.4-11.4-11.4H239.8z"/>
</svg>
