<?xml version="1.0" encoding="utf-8"?>
<!-- Generator: Adobe Illustrator 19.2.0, SVG Export Plug-In . SVG Version: 6.00 Build 0)  -->
<svg version="1.1" id="Warstwa_1" xmlns="http://www.w3.org/2000/svg" xmlns:xlink="http://www.w3.org/1999/xlink" x="0px" y="0px"
	 viewBox="0 0 24 24" style="enable-background:new 0 0 24 24;" xml:space="preserve">
<style type="text/css">
	.st0{fill:#FFFFFF;}
</style>
<g id="Solid">
	<g>
		<path class="st0" d="M12,0C5.4,0,0,5.4,0,12s5.4,12,12,12s12-5.4,12-12S18.6,0,12,0z M20.6,7h-2.4c-0.4-0.5-2.6-3.9-3-4.5
			C17.5,3.3,19.4,4.9,20.6,7z M6,12c0-3.3,2.7-6,6-6s6,2.7,6,6s-2.7,6-6,6S6,15.3,6,12z M12.5,2L14,4.3C13.3,4.1,12.7,4,12,4
			s-1.3,0.1-2,0.3L11.5,2c0.2,0,0.3,0,0.5,0S12.3,2,12.5,2z M8.8,2.5c-0.4,0.6-2.6,4-3,4.5H3.4C4.6,4.9,6.5,3.3,8.8,2.5z M2.5,9h2.1
			C4.2,9.9,4,10.9,4,12s0.2,2.1,0.6,3H2.5C2.2,14.1,2,13,2,12S2.2,9.9,2.5,9z M3.4,17h2.4c0.4,0.5,2.6,3.9,3,4.5
			C6.5,20.7,4.6,19.1,3.4,17z M11.5,22L10,19.7c0.6,0.2,1.3,0.3,2,0.3s1.3-0.1,2-0.3L12.5,22c-0.2,0-0.3,0-0.5,0S11.7,22,11.5,22z
			 M15.2,21.5c0.4-0.6,2.6-3.9,3-4.5h2.4C19.4,19.1,17.5,20.7,15.2,21.5z M21.5,15h-2.1c0.4-0.9,0.6-1.9,0.6-3s-0.2-2.1-0.6-3h2.1
			c0.3,0.9,0.5,2,0.5,3S21.8,14.1,21.5,15z"/>
		<path class="st0" d="M13,17v-1c1.1-0.2,2-1.2,2-2.4c0-0.6-0.2-1.1-0.5-1.5c0.3-0.4,0.5-0.9,0.5-1.5c0-1.2-0.9-2.2-2-2.4V7h-2v1H9
			v8h2v1H13z M12.5,14H11v-1h1.5c0.3,0,0.5,0.2,0.5,0.5S12.8,14,12.5,14z M13,10.5c0,0.3-0.2,0.5-0.5,0.5H11v-1h1.5
			C12.8,10,13,10.2,13,10.5z"/>
	</g>
</g>
</svg>
