<?xml version="1.0" encoding="utf-8"?>
<!-- Generator: Adobe Illustrator 19.2.0, SVG Export Plug-In . SVG Version: 6.00 Build 0)  -->
<svg version="1.1" id="Warstwa_1" xmlns="http://www.w3.org/2000/svg" xmlns:xlink="http://www.w3.org/1999/xlink" x="0px" y="0px"
	 viewBox="0 0 24 24" style="enable-background:new 0 0 24 24;" xml:space="preserve">
<style type="text/css">
	.st0{fill:#FFFFFF;}
</style>
<g id="Outline">
	<g>
		<circle class="st0" cx="8" cy="17" r="1"/>
		<circle class="st0" cx="16" cy="17" r="1"/>
		<rect x="21" y="8" class="st0" width="2" height="4"/>
		<rect x="1" y="8" class="st0" width="2" height="4"/>
		<path class="st0" d="M18,3H6C4.9,3,4,3.9,4,5v16c0,1.1,0.9,2,2,2s2-0.9,2-2h8c0,1.1,0.9,2,2,2s2-0.9,2-2V5C20,3.9,19.1,3,18,3z
			 M6,9h12v4H6C6,13,6,9,6,9z M18,19H6v-4h12V19z M6,7V5h12v2H6z"/>
	</g>
</g>
</svg>
