<?xml version="1.0" encoding="utf-8"?>
<!-- Generator: Adobe Illustrator 18.1.1, SVG Export Plug-In . SVG Version: 6.00 Build 0)  -->
<svg version="1.1" id="Warstwa_1" xmlns="http://www.w3.org/2000/svg" xmlns:xlink="http://www.w3.org/1999/xlink" x="0px" y="0px"
	 width="510.2px" height="368.5px" viewBox="0 0 510.2 368.5" enable-background="new 0 0 510.2 368.5" xml:space="preserve">
<circle fill="#FFFFFF" cx="175.5" cy="259.2" r="13.3"/>
<circle fill="#FFFFFF" cx="327.5" cy="259.2" r="13.3"/>
<rect x="428.1" y="95.9" fill="#FFFFFF" width="24.7" height="62.7"/>
<rect x="50.1" y="95.9" fill="#FFFFFF" width="24.7" height="62.7"/>
<path fill="#FFFFFF" d="M365.5,0.9h-228c-17.1,0-30.4,13.3-30.4,30.4v304c0,17.1,13.3,32.3,30.4,32.3s30.4-13.3,30.4-32.3v-5.7
	h165.3v5.7c0,17.1,13.3,32.3,32.3,32.3c19,0,32.3-13.3,32.3-32.3v-304C397.8,14.2,382.6,0.9,365.5,0.9z M371.2,302.9H129.9v-89.3
	h241.3V302.9z M371.2,189H129.9V99.7h241.3V189z M371.2,76.9H129.9V23.7h241.3V76.9z"/>
</svg>
