<?xml version="1.0" encoding="utf-8"?>
<!-- Generator: Adobe Illustrator 19.2.0, SVG Export Plug-In . SVG Version: 6.00 Build 0)  -->
<svg version="1.1" id="Warstwa_1" xmlns="http://www.w3.org/2000/svg" xmlns:xlink="http://www.w3.org/1999/xlink" x="0px" y="0px"
	 viewBox="0 0 24 24" style="enable-background:new 0 0 24 24;" xml:space="preserve">
<style type="text/css">
	.st0{fill:#FFFFFF;}
</style>
<circle class="st0" cx="8" cy="17" r="0.7"/>
<circle class="st0" cx="16" cy="17" r="0.7"/>
<rect x="21.3" y="8.4" class="st0" width="1.3" height="3.3"/>
<rect x="1.4" y="8.4" class="st0" width="1.3" height="3.3"/>
<path class="st0" d="M18,3.4H6C5.1,3.4,4.4,4.1,4.4,5v16c0,0.9,0.7,1.7,1.6,1.7s1.6-0.7,1.6-1.7v-0.3h8.7V21c0,0.9,0.7,1.7,1.7,1.7
	s1.7-0.7,1.7-1.7V5C19.7,4.1,18.9,3.4,18,3.4z M18.3,19.3H5.6v-4.7h12.7V19.3z M18.3,13.3H5.6V8.6h12.7V13.3z M18.3,7.4H5.6V4.6
	h12.7V7.4z"/>
</svg>
