<?xml version="1.0" encoding="utf-8"?>
<!-- Generator: Adobe Illustrator 19.2.0, SVG Export Plug-In . SVG Version: 6.00 Build 0)  -->
<svg version="1.1" id="Warstwa_1" xmlns="http://www.w3.org/2000/svg" xmlns:xlink="http://www.w3.org/1999/xlink" x="0px" y="0px"
	 viewBox="0 0 24 24" style="enable-background:new 0 0 24 24;" xml:space="preserve">
<style type="text/css">
	.st0{fill:#FFFFFF;}
</style>
<g id="Outline">
	<g>
		<path class="st0" d="M21,3h-3V1h-2v6h2V5h3v15H3V5h2V3H3C1.9,3,1,3.9,1,5v15c0,1.1,0.9,2,2,2h18c1.1,0,2-0.9,2-2V5
			C23,3.9,22.1,3,21,3z"/>
		<polygon class="st0" points="8,5 15,5 15,3 8,3 8,1 6,1 6,7 8,7 		"/>
		<rect x="5" y="9" class="st0" width="4" height="4"/>
		<rect x="10" y="9" class="st0" width="4" height="4"/>
		<rect x="15" y="9" class="st0" width="4" height="4"/>
		<rect x="5" y="14" class="st0" width="4" height="4"/>
		<rect x="10" y="14" class="st0" width="4" height="4"/>
	</g>
</g>
</svg>
