<?xml version="1.0" encoding="utf-8"?>
<!-- Generator: Adobe Illustrator 18.1.1, SVG Export Plug-In . SVG Version: 6.00 Build 0)  -->
<svg version="1.1" id="Warstwa_1" xmlns="http://www.w3.org/2000/svg" xmlns:xlink="http://www.w3.org/1999/xlink" x="0px" y="0px"
	 width="510.2px" height="368.5px" viewBox="0 0 510.2 368.5" enable-background="new 0 0 510.2 368.5" xml:space="preserve">
<path fill="#FFFFFF" d="M88.6,365.2c-17.3,0-31.3-14-31.3-31.3V69c0-17.3,14-31.3,31.3-31.3h31.3V65H88.6c-2.2,0-4,1.8-4,4v264.9
	c0,2.2,1.8,4,4,4h317.9c2.2,0,4-1.8,4-4V69c0-2.2-1.8-4-4-4h-53c-2.2,0-4,1.8-4,4v31.3h-27.3V2.4h27.3v31.3c0,2.2,1.8,4,4,4h53
	c17.3,0,31.3,14,31.3,31.3v264.9c0,17.3-14,31.3-31.3,31.3H88.6z"/>
<path fill="#FFFFFF" d="M145.6,100.3V2.4h27.3v31.3c0,2.2,1.8,4,4,4h119.6V65H176.9c-2.2,0-4,1.8-4,4v31.3H145.6z"/>
<rect x="128" y="143.7" fill="#FFFFFF" width="62.6" height="62.6"/>
<rect x="216.3" y="143.7" fill="#FFFFFF" width="62.6" height="62.6"/>
<rect x="304.6" y="143.7" fill="#FFFFFF" width="62.6" height="62.6"/>
<rect x="128" y="232" fill="#FFFFFF" width="62.6" height="62.6"/>
<rect x="216.3" y="232" fill="#FFFFFF" width="62.6" height="62.6"/>
</svg>
