<?xml version="1.0" encoding="utf-8"?>
<!-- Generator: Adobe Illustrator 19.2.0, SVG Export Plug-In . SVG Version: 6.00 Build 0)  -->
<svg version="1.1" id="Warstwa_1" xmlns="http://www.w3.org/2000/svg" xmlns:xlink="http://www.w3.org/1999/xlink" x="0px" y="0px"
	 viewBox="0 0 24 24" style="enable-background:new 0 0 24 24;" xml:space="preserve">
<style type="text/css">
	.st0{fill:#FFFFFF;}
</style>
<path class="st0" d="M7.4,13c0,2.6,2,4.7,4.6,4.7s4.7-2,4.7-4.7s-2-4.6-4.7-4.6S7.4,10.4,7.4,13z M15.3,13c0,1.9-1.5,3.3-3.3,3.3
	c-1.9,0-3.4-1.5-3.4-3.3c0-1.9,1.5-3.4,3.4-3.4C13.9,9.6,15.3,11.1,15.3,13z"/>
<path class="st0" d="M20,6.4h-3.5c-0.1,0-0.2-0.1-0.3-0.2l-1.4-2.1c-0.3-0.5-0.8-0.7-1.4-0.7h-2.9c-0.4,0-1,0.2-1.3,0.7L7.8,6.2
	C7.7,6.3,7.6,6.4,7.5,6.4H4C3.1,6.4,2.4,7.1,2.4,8v11c0,0.9,0.7,1.7,1.6,1.7h16c0.9,0,1.7-0.7,1.7-1.7V8C21.7,7.1,20.9,6.4,20,6.4z
	 M20.3,19c0,0.2-0.2,0.3-0.3,0.3H4c-0.2,0-0.4-0.2-0.4-0.3V8c0-0.2,0.2-0.4,0.4-0.4h4.3l1.9-2.8c0.1-0.1,0.2-0.2,0.3-0.2h2.9
	c0.1,0,0.2,0.1,0.3,0.2l1.9,2.8H20c0.2,0,0.3,0.2,0.3,0.4V19z"/>
</svg>
