<?xml version="1.0" encoding="utf-8"?>
<!-- Generator: Adobe Illustrator 19.2.0, SVG Export Plug-In . SVG Version: 6.00 Build 0)  -->
<svg version="1.1" id="Warstwa_1" xmlns="http://www.w3.org/2000/svg" xmlns:xlink="http://www.w3.org/1999/xlink" x="0px" y="0px"
	 viewBox="0 0 24 24" style="enable-background:new 0 0 24 24;" xml:space="preserve">
<style type="text/css">
	.st0{fill:#FFFFFF;}
</style>
<g id="Solid">
	<g>
		<path class="st0" d="M12,8c-2.8,0-5,2.2-5,5s2.2,5,5,5s5-2.2,5-5S14.8,8,12,8z M12,16c-1.7,0-3-1.3-3-3s1.3-3,3-3s3,1.3,3,3
			S13.7,16,12,16z"/>
		<path class="st0" d="M20,6h-3.5l-1.4-2.1c-0.4-0.6-1-0.9-1.7-0.9h-2.9C9.9,3,9.2,3.3,8.9,3.9L7.5,6H4C2.9,6,2,6.9,2,8v11
			c0,1.1,0.9,2,2,2h16c1.1,0,2-0.9,2-2V8C22,6.9,21.1,6,20,6z M4,19V8h4.5l2-3h2.9l2,3H20l0,11H4z"/>
	</g>
</g>
</svg>
