<?xml version="1.0" encoding="utf-8"?>
<!-- Generator: Adobe Illustrator 18.1.1, SVG Export Plug-In . SVG Version: 6.00 Build 0)  -->
<svg version="1.1" id="Warstwa_1" xmlns="http://www.w3.org/2000/svg" xmlns:xlink="http://www.w3.org/1999/xlink" x="0px" y="0px"
	 width="510.2px" height="368.5px" viewBox="0 0 510.2 368.5" enable-background="new 0 0 510.2 368.5" xml:space="preserve">
<path fill="#FFFFFF" d="M159.4,204.7c0,54,41.5,97.5,95.4,97.5s97.5-41.5,97.5-97.5s-41.5-95.4-97.5-95.4S159.4,150.8,159.4,204.7z
	 M323.3,204.7c0,39.4-31.1,68.5-68.5,68.5c-39.4,0-70.5-31.1-70.5-68.5c0-39.4,31.1-70.5,70.5-70.5S323.3,165.3,323.3,204.7z"/>
<path fill="#FFFFFF" d="M420.8,67.8h-72.6c-2,0-4.2-2-6.2-4.2l-29-43.5c-6.2-10.3-16.6-14.5-29.1-14.5h-60.2
	c-8.3,0-20.8,4.2-26.9,14.5l-29.1,43.5c-2,2-4.2,4.2-6.2,4.2H88.9c-18.6,0-33.2,14.5-33.2,33.2v228.2c0,18.6,14.5,35.2,33.2,35.2
	h331.9c18.6,0,35.2-14.5,35.2-35.2V101C456.1,82.4,439.4,67.8,420.8,67.8z M427,329.2c0,4.2-4.2,6.2-6.2,6.2H88.9
	c-4.2,0-8.3-4.2-8.3-6.2V101c0-4.2,4.2-8.3,8.3-8.3H178l39.4-58c2-2,4.2-4.2,6.2-4.2h60.2c2,0,4.2,2,6.2,4.2l39.4,58h91.2
	c4.2,0,6.2,4.2,6.2,8.3V329.2z"/>
</svg>
