<?xml version="1.0" encoding="utf-8"?>
<!-- Generator: Adobe Illustrator 19.2.0, SVG Export Plug-In . SVG Version: 6.00 Build 0)  -->
<svg version="1.1" id="Warstwa_1" xmlns="http://www.w3.org/2000/svg" xmlns:xlink="http://www.w3.org/1999/xlink" x="0px" y="0px"
	 viewBox="0 0 24 24" style="enable-background:new 0 0 24 24;" xml:space="preserve">
<style type="text/css">
	.st0{fill:#FFFFFF;}
</style>
<path class="st0" d="M21.3,6.4l-9.1-4c-0.2-0.1-0.4-0.1-0.5,0l-9,4C2.5,6.5,2.4,6.8,2.4,7v2c0,0.4,0.2,0.6,0.6,0.6h8
	c0.2,0,0.4,0.2,0.4,0.4v10c0,0.2-0.2,0.3-0.4,0.3H2.4v1.3h19.3v-1.3H13c-0.2,0-0.4-0.2-0.4-0.3V10c0-0.2,0.2-0.4,0.4-0.4h8
	c0.4,0,0.7-0.2,0.7-0.6V7C21.7,6.8,21.5,6.5,21.3,6.4z M7.5,8.4H4C3.8,8.4,3.6,8.2,3.6,8V7.7c0-0.1,0.1-0.3,0.2-0.3l5.3-2.3
	c0.1-0.1,0.3,0,0.4,0.1s0.1,0.3,0,0.4L7.8,8.2C7.7,8.3,7.6,8.4,7.5,8.4z M14.4,8.2c-0.1,0.1-0.2,0.2-0.3,0.2H9.9
	c-0.1,0-0.2-0.1-0.3-0.2c-0.1-0.1-0.1-0.3,0-0.4l2.1-3.2c0.1-0.2,0.5-0.2,0.6,0l2.1,3.2C14.5,7.9,14.5,8.1,14.4,8.2z M20.3,8
	c0,0.2-0.2,0.4-0.3,0.4h-3.5c-0.1,0-0.2-0.1-0.3-0.2l-1.8-2.7c-0.1-0.1-0.1-0.3,0-0.4s0.3-0.2,0.4-0.1l5.3,2.4
	c0.1,0.1,0.2,0.2,0.2,0.3V8z"/>
<path class="st0" d="M20,14.3h-4c-0.4,0-0.7,0.2-0.7,0.7v1c0,1.6,1,2.7,2.7,2.7s2.7-1,2.7-2.7v-1C20.7,14.6,20.4,14.3,20,14.3z
	 M18,17.3c-0.8,0-1.3-0.5-1.3-1.3c0-0.2,0.2-0.3,0.3-0.3h2c0.2,0,0.3,0.2,0.3,0.3C19.3,16.5,19.2,17.3,18,17.3z"/>
<path class="st0" d="M8.6,16v-1c0-0.4-0.2-0.7-0.6-0.7H4c-0.4,0-0.6,0.2-0.6,0.7v1c0,1.7,0.9,2.7,2.6,2.7S8.6,17.7,8.6,16z M4.6,16
	c0-0.2,0.2-0.3,0.4-0.3h2c0.2,0,0.4,0.2,0.4,0.3c0,1-0.4,1.3-1.4,1.3S4.6,17,4.6,16z"/>
</svg>
