<?xml version="1.0" encoding="utf-8"?>
<!-- Generator: Adobe Illustrator 19.2.0, SVG Export Plug-In . SVG Version: 6.00 Build 0)  -->
<svg version="1.1" id="Warstwa_1" xmlns="http://www.w3.org/2000/svg" xmlns:xlink="http://www.w3.org/1999/xlink" x="0px" y="0px"
	 viewBox="0 0 24 24" style="enable-background:new 0 0 24 24;" xml:space="preserve">
<style type="text/css">
	.st0{fill:#FFFFFF;}
</style>
<g id="Outline">
	<g>
		<path class="st0" d="M22,9V7c0-0.4-0.2-0.8-0.6-0.9l-9-4c-0.3-0.1-0.6-0.1-0.8,0l-9,4C2.2,6.2,2,6.6,2,7v2c0,0.6,0.4,1,1,1h8v10H2
			v2h20v-2h-9V10h8C21.6,10,22,9.6,22,9z M4,7.7l5.3-2.3L7.5,8H4V7.7z M9.9,8L12,4.8L14.1,8H9.9z M20,8h-3.5l-1.8-2.7L20,7.7V8z"/>
		<path class="st0" d="M16,14c-0.6,0-1,0.4-1,1v1c0,1.8,1.2,3,3,3h0c1.8,0,3-1.2,3-3v-1c0-0.6-0.4-1-1-1C20,14,16,14,16,14z M18,17
			c-0.2,0-1,0-1-1h2C19,16.9,18.4,17,18,17z"/>
		<path class="st0" d="M6,19c1.9,0,3-1.1,3-3v-1c0-0.6-0.4-1-1-1H4c-0.6,0-1,0.4-1,1v1C3,17.9,4.1,19,6,19L6,19z M5,16h2
			c0,0.8-0.2,1-1,1C5.2,17,5,16.8,5,16z"/>
	</g>
</g>
</svg>
