<?xml version="1.0" encoding="utf-8"?>
<!-- Generator: Adobe Illustrator 18.1.1, SVG Export Plug-In . SVG Version: 6.00 Build 0)  -->
<svg version="1.1" id="Warstwa_1" xmlns="http://www.w3.org/2000/svg" xmlns:xlink="http://www.w3.org/1999/xlink" x="0px" y="0px"
	 width="510.2px" height="368.5px" viewBox="0 0 510.2 368.5" enable-background="new 0 0 510.2 368.5" xml:space="preserve">
<path fill="#FFFFFF" d="M432,78.1L258.1,1.6c-3.8-1.9-7.6-1.9-9.6,0l-172,76.4c-3.8,1.9-5.7,7.6-5.7,11.5v38.2
	c0,7.6,3.8,11.5,11.5,11.5h152.9c3.8,0,7.6,3.8,7.6,7.6v191.1c0,3.8-3.8,5.7-7.6,5.7H70.8v24.8h368.8v-24.8H273.4
	c-3.8,0-7.6-3.8-7.6-5.7V146.9c0-3.8,3.8-7.6,7.6-7.6h152.9c7.6,0,13.4-3.8,13.4-11.5V89.5C439.6,85.7,435.8,80,432,78.1z
	 M168.3,116.3h-66.9c-3.8,0-7.6-3.8-7.6-7.6v-5.7c0-1.9,1.9-5.7,3.8-5.7l101.3-43.9c1.9-1.9,5.7,0,7.6,1.9c1.9,1.9,1.9,5.7,0,7.6
	L174,112.5C172.1,114.4,170.2,116.3,168.3,116.3z M300.1,112.5c-1.9,1.9-3.8,3.8-5.7,3.8h-80.3c-1.9,0-3.8-1.9-5.7-3.8
	c-1.9-1.9-1.9-5.7,0-7.6l40.1-61.1c1.9-3.8,9.6-3.8,11.5,0l40.1,61.1C302,106.7,302,110.5,300.1,112.5z M412.9,108.6
	c0,3.8-3.8,7.6-5.7,7.6h-66.9c-1.9,0-3.8-1.9-5.7-3.8l-34.4-51.6c-1.9-1.9-1.9-5.7,0-7.6c1.9-1.9,5.7-3.8,7.6-1.9L409,97.2
	c1.9,1.9,3.8,3.8,3.8,5.7L412.9,108.6L412.9,108.6z"/>
<path fill="#FFFFFF" d="M407.1,229h-76.4c-7.6,0-13.4,3.8-13.4,13.4v19.1c0,30.6,19.1,51.6,51.6,51.6s51.6-19.1,51.6-51.6v-19.1
	C420.5,234.7,414.8,229,407.1,229z M368.9,286.3c-15.3,0-24.8-9.6-24.8-24.8c0-3.8,3.8-5.7,5.7-5.7H388c3.8,0,5.7,3.8,5.7,5.7
	C393.7,271.1,391.8,286.3,368.9,286.3z"/>
<path fill="#FFFFFF" d="M189.3,261.5v-19.1c0-7.6-3.8-13.4-11.5-13.4h-76.4c-7.6,0-11.5,3.8-11.5,13.4v19.1
	c0,32.5,17.2,51.6,49.7,51.6S189.3,294,189.3,261.5z M112.9,261.5c0-3.8,3.8-5.7,7.6-5.7h38.2c3.8,0,7.6,3.8,7.6,5.7
	c0,19.1-7.6,24.8-26.8,24.8S112.9,280.6,112.9,261.5z"/>
</svg>
