<?xml version="1.0" encoding="utf-8"?>
<!-- Generator: Adobe Illustrator 19.2.0, SVG Export Plug-In . SVG Version: 6.00 Build 0)  -->
<svg version="1.1" id="Warstwa_1" xmlns="http://www.w3.org/2000/svg" xmlns:xlink="http://www.w3.org/1999/xlink" x="0px" y="0px"
	 viewBox="0 0 24 24" style="enable-background:new 0 0 24 24;" xml:space="preserve">
<style type="text/css">
	.st0{fill:#FFFFFF;}
</style>
<g id="Outline">
	<g>
		<path class="st0" d="M15.3,7.3L11,11.6L8.7,9.3l-1.4,1.4l3,3c0.2,0.2,0.5,0.3,0.7,0.3s0.5-0.1,0.7-0.3l5-5L15.3,7.3z"/>
		<path class="st0" d="M12,2c-4.4,0-8,3.6-8,8s4.6,9.4,8,12.3c3.4-2.9,8-7.9,8-12.3C20,5.6,16.4,2,12,2z M12,19.7
			c-2.1-2-6-6.3-6-9.7c0-3.3,2.7-6,6-6s6,2.7,6,6C18,13.3,14.1,17.7,12,19.7z"/>
	</g>
</g>
</svg>
