<?xml version="1.0" encoding="utf-8"?>
<!-- Generator: Adobe Illustrator 18.1.1, SVG Export Plug-In . SVG Version: 6.00 Build 0)  -->
<svg version="1.1" id="Warstwa_1" xmlns="http://www.w3.org/2000/svg" xmlns:xlink="http://www.w3.org/1999/xlink" x="0px" y="0px"
	 width="510.2px" height="368.5px" viewBox="0 0 510.2 368.5" enable-background="new 0 0 510.2 368.5" xml:space="preserve">
<polygon fill="#FFFFFF" points="170.8,105.1 190.4,105.1 190.4,40 218,66.1 232.6,51.4 180.6,-0.6 128.6,51.4 143.2,66.1 170.8,40 
	"/>
<polygon fill="#FFFFFF" points="395.2,57.9 380.6,43.3 354.6,69.3 354.6,4.3 331.8,4.3 331.8,69.3 305.8,43.3 291.2,57.9 343.2,110 
	"/>
<path fill="#FFFFFF" d="M239.1,225.4c0-24.4-17.9-42.3-42.3-42.3s-42.3,17.9-42.3,42.3s17.9,43.9,42.3,43.9S239.1,249.8,239.1,225.4
	z M196.9,246.6c-13,0-22.8-9.8-22.8-21.1s9.8-21.1,22.8-21.1s22.8,9.8,22.8,21.1S209.9,246.6,196.9,246.6z"/>
<path fill="#FFFFFF" d="M154.6,318.1h21.1c1.6-9.8,9.8-16.3,21.1-16.3c11.4,0,19.5,6.5,21.1,16.3h21.1
	c-3.3-21.1-19.5-37.4-42.3-37.4S156.2,295.3,154.6,318.1z"/>
<path fill="#FFFFFF" d="M370.9,225.4c0-24.4-17.9-42.3-43.9-42.3S283,201,283,225.4s17.9,43.9,43.9,43.9
	C353,269.3,370.9,249.8,370.9,225.4z M327,246.6c-13,0-21.1-9.8-21.1-21.1s9.8-21.1,21.1-21.1s21.1,9.8,21.1,21.1
	C348.1,238.4,336.7,246.6,327,246.6z"/>
<path fill="#FFFFFF" d="M284.7,318.1h21.1c1.6-9.8,9.8-16.3,21.1-16.3s19.5,6.5,21.1,16.3h21.1c-3.3-21.1-19.5-37.4-42.3-37.4
	C304.2,280.7,286.3,295.3,284.7,318.1z"/>
<path fill="#FFFFFF" d="M424.5,134.4H99.3c-6.5,0-9.8,3.3-9.8,9.8v211.4c0,6.5,3.3,11.4,9.8,11.4h325.2c6.5,0,11.4-3.3,11.4-11.4
	V144.1C435.9,137.6,431,134.4,424.5,134.4z M413.1,344.1H109.1V153.9h304.1L413.1,344.1L413.1,344.1z"/>
</svg>
