<?xml version="1.0" encoding="utf-8"?>
<!-- Generator: Adobe Illustrator 19.2.0, SVG Export Plug-In . SVG Version: 6.00 Build 0)  -->
<svg version="1.1" id="Warstwa_1" xmlns="http://www.w3.org/2000/svg" xmlns:xlink="http://www.w3.org/1999/xlink" x="0px" y="0px"
	 viewBox="0 0 24 24" style="enable-background:new 0 0 24 24;" xml:space="preserve">
<style type="text/css">
	.st0{fill:#FFFFFF;}
</style>
<polygon class="st0" points="6.4,7.6 7.6,7.6 7.6,3.6 9.3,5.2 10.2,4.3 7,1.1 3.8,4.3 4.7,5.2 6.4,3.6 "/>
<polygon class="st0" points="20.2,4.7 19.3,3.8 17.7,5.4 17.7,1.4 16.3,1.4 16.3,5.4 14.7,3.8 13.8,4.7 17,7.9 "/>
<path class="st0" d="M10.6,15c0-1.5-1.1-2.6-2.6-2.6S5.4,13.5,5.4,15s1.1,2.7,2.6,2.7S10.6,16.5,10.6,15z M8,16.3
	c-0.8,0-1.4-0.6-1.4-1.3s0.6-1.3,1.4-1.3s1.4,0.6,1.4,1.3S8.8,16.3,8,16.3z"/>
<path class="st0" d="M5.4,20.7h1.3c0.1-0.6,0.6-1,1.3-1s1.2,0.4,1.3,1h1.3c-0.2-1.3-1.2-2.3-2.6-2.3S5.5,19.3,5.4,20.7z"/>
<path class="st0" d="M18.7,15c0-1.5-1.1-2.6-2.7-2.6s-2.7,1.1-2.7,2.6s1.1,2.7,2.7,2.7S18.7,16.5,18.7,15z M16,16.3
	c-0.8,0-1.3-0.6-1.3-1.3s0.6-1.3,1.3-1.3s1.3,0.6,1.3,1.3C17.3,15.8,16.6,16.3,16,16.3z"/>
<path class="st0" d="M13.4,20.7h1.3c0.1-0.6,0.6-1,1.3-1s1.2,0.4,1.3,1h1.3c-0.2-1.3-1.2-2.3-2.6-2.3S13.5,19.3,13.4,20.7z"/>
<path class="st0" d="M22,9.4H2c-0.4,0-0.6,0.2-0.6,0.6v13c0,0.4,0.2,0.7,0.6,0.7h20c0.4,0,0.7-0.2,0.7-0.7V10
	C22.7,9.6,22.4,9.4,22,9.4z M21.3,22.3H2.6V10.6h18.7V22.3z"/>
</svg>
