<?xml version="1.0" encoding="utf-8"?>
<!-- Generator: Adobe Illustrator 19.2.0, SVG Export Plug-In . SVG Version: 6.00 Build 0)  -->
<svg version="1.1" id="Warstwa_1" xmlns="http://www.w3.org/2000/svg" xmlns:xlink="http://www.w3.org/1999/xlink" x="0px" y="0px"
	 viewBox="0 0 24 24" style="enable-background:new 0 0 24 24;" xml:space="preserve">
<style type="text/css">
	.st0{fill:#FFFFFF;}
</style>
<g id="Outline">
	<g>
		<polygon class="st0" points="6,4.4 6,8 8,8 8,4.4 9.3,5.7 10.7,4.3 7,0.6 3.3,4.3 4.7,5.7 		"/>
		<polygon class="st0" points="20.7,4.7 19.3,3.3 18,4.6 18,1 16,1 16,4.6 14.7,3.3 13.3,4.7 17,8.4 		"/>
		<path class="st0" d="M11,15c0-1.7-1.3-3-3-3s-3,1.3-3,3c0,1.7,1.3,3,3,3S11,16.7,11,15z M8,16c-0.6,0-1-0.4-1-1s0.4-1,1-1
			s1,0.4,1,1C9,15.6,8.6,16,8,16z"/>
		<path class="st0" d="M5,21h2c0-0.6,0.4-1,1-1s1,0.4,1,1h2c0-1.7-1.3-3-3-3S5,19.3,5,21z"/>
		<path class="st0" d="M19,15c0-1.7-1.3-3-3-3s-3,1.3-3,3c0,1.7,1.3,3,3,3S19,16.7,19,15z M16,16c-0.6,0-1-0.4-1-1s0.4-1,1-1
			s1,0.4,1,1S16.5,16,16,16z"/>
		<path class="st0" d="M13,21h2c0-0.6,0.4-1,1-1s1,0.4,1,1h2c0-1.7-1.3-3-3-3S13,19.3,13,21z"/>
		<path class="st0" d="M22,9H2c-0.6,0-1,0.4-1,1v13c0,0.6,0.4,1,1,1h20c0.6,0,1-0.4,1-1V10C23,9.4,22.6,9,22,9z M21,22H3V11h18V22z"
			/>
	</g>
</g>
</svg>
