<?xml version="1.0" encoding="utf-8"?>
<!-- Generator: Adobe Illustrator 19.2.0, SVG Export Plug-In . SVG Version: 6.00 Build 0)  -->
<svg version="1.1" id="Warstwa_1" xmlns="http://www.w3.org/2000/svg" xmlns:xlink="http://www.w3.org/1999/xlink" x="0px" y="0px"
	 viewBox="0 0 24 24" style="enable-background:new 0 0 24 24;" xml:space="preserve">
<style type="text/css">
	.st0{fill:#FFFFFF;}
</style>
<g id="Outline">
	<path class="st0" d="M22,13c0-5.5-4.5-10-10-10C6.6,3,2,7.4,2,13c0,5.5,4.5,10,10,10l0,0l0,0C17.3,23,22,18.6,22,13z M11.6,21
		c3.3-1.6,5.7-4.2,6.8-7c0.5,0.4,0.9,0.8,1.3,1.2C18.7,18.6,15.5,21.2,11.6,21z M7.1,19.3c4-0.7,6.9-3.5,8.2-7
		c0.9,0.3,1.2,0.4,1.9,0.8C16,16.3,13,19.3,9,20.3C8.2,20.1,7.6,19.7,7.1,19.3z M5.1,8.9c-0.1,3.3,1,6.3,2.8,8.6
		c-0.7,0.2-1.4,0.4-2.2,0.4C3.6,15.3,3.5,11.7,5.1,8.9z M8.8,5.7C7.6,9.5,8.5,13.3,10.9,16c-0.7,0.5-1,0.7-1.5,1
		c-2.2-2.7-3.3-6.3-2.5-10.1C7.5,6.4,8.1,6,8.8,5.7z M18.8,8.8c-2.9-1.5-6-1.8-8.9-1.3c0.1-0.8,0.4-1.6,0.7-2.4
		C14,4.6,17.1,6.1,18.8,8.8z M9.9,10.8c-0.1-0.6-0.2-1.2-0.2-1.7c3.3-0.8,7-0.2,10,2c0.2,0.7,0.2,1.4,0.2,2.2
		C17.1,10.7,13.3,9.9,9.9,10.8z M12,15c-0.7-0.8-1.2-1.7-1.6-2.7c1.1-0.3,2.3-0.4,3.4-0.2C13.4,13.1,12.8,14.1,12,15z"/>
</g>
</svg>
