<?xml version="1.0" encoding="utf-8"?>
<!-- Generator: Adobe Illustrator 19.2.0, SVG Export Plug-In . SVG Version: 6.00 Build 0)  -->
<svg version="1.1" id="Warstwa_1" xmlns="http://www.w3.org/2000/svg" xmlns:xlink="http://www.w3.org/1999/xlink" x="0px" y="0px"
	 viewBox="0 0 24 24" style="enable-background:new 0 0 24 24;" xml:space="preserve">
<style type="text/css">
	.st0{fill:#FFFFFF;}
</style>
<path class="st0" d="M19,1.4H5C4.1,1.4,3.4,2.1,3.4,3v18c0,0.9,0.7,1.7,1.6,1.7h11c2.6,0,4.7-2,4.7-4.7V3C20.7,2.1,19.9,1.4,19,1.4z
	 M19.3,18c0,1.9-1.5,3.3-3.3,3.3H4.6V2.6h14.7V18z"/>
<polygon class="st0" points="9.6,14.3 8.4,14.3 8.4,16.3 6.4,16.3 6.4,17.7 8.4,17.7 8.4,19.7 9.6,19.7 9.6,17.7 11.6,17.7 
	11.6,16.3 9.6,16.3 "/>
<circle class="st0" cx="17" cy="16" r="0.7"/>
<circle class="st0" cx="15" cy="18" r="0.7"/>
<path class="st0" d="M7,12.6h10c0.4,0,0.7-0.2,0.7-0.6V5c0-0.4-0.2-0.6-0.7-0.6H7C6.6,4.4,6.4,4.6,6.4,5v7C6.4,12.4,6.6,12.6,7,12.6
	z M7.6,5.6h8.7v5.7H7.6V5.6z"/>
</svg>
