<?xml version="1.0" encoding="utf-8"?>
<!-- Generator: Adobe Illustrator 19.2.0, SVG Export Plug-In . SVG Version: 6.00 Build 0)  -->
<svg version="1.1" id="Warstwa_1" xmlns="http://www.w3.org/2000/svg" xmlns:xlink="http://www.w3.org/1999/xlink" x="0px" y="0px"
	 viewBox="0 0 24 24" style="enable-background:new 0 0 24 24;" xml:space="preserve">
<style type="text/css">
	.st0{fill:#FFFFFF;}
</style>
<g id="Outline">
	<g>
		<path class="st0" d="M19,1H5C3.9,1,3,1.9,3,3v18c0,1.1,0.9,2,2,2h11c2.8,0,5-2.2,5-5V3C21,1.9,20.1,1,19,1z M16,21H5V3h14v15
			C19,19.7,17.7,21,16,21z"/>
		<polygon class="st0" points="10,14 8,14 8,16 6,16 6,18 8,18 8,20 10,20 10,18 12,18 12,16 10,16 		"/>
		<circle class="st0" cx="17" cy="16" r="1"/>
		<circle class="st0" cx="15" cy="18" r="1"/>
		<path class="st0" d="M17,4H7C6.4,4,6,4.4,6,5v7c0,0.6,0.4,1,1,1h10c0.6,0,1-0.4,1-1V5C18,4.4,17.6,4,17,4z M16,11H8V6h8V11z"/>
	</g>
</g>
</svg>
