<?xml version="1.0" encoding="utf-8"?>
<!-- Generator: Adobe Illustrator 18.1.1, SVG Export Plug-In . SVG Version: 6.00 Build 0)  -->
<svg version="1.1" id="Warstwa_1" xmlns="http://www.w3.org/2000/svg" xmlns:xlink="http://www.w3.org/1999/xlink" x="0px" y="0px"
	 width="510.2px" height="368.5px" viewBox="0 0 510.2 368.5" enable-background="new 0 0 510.2 368.5" xml:space="preserve">
<path fill="#FFFFFF" d="M375.2,2.5H136.5c-15.3,0-27.3,11.9-27.3,27.3v306.8c0,15.3,11.9,29,27.3,29H324c44.3,0,80.1-34.1,80.1-80.1
	V29.8C404.1,14.4,390.5,2.5,375.2,2.5z M380.3,285.4c0,32.4-25.6,56.2-56.2,56.2H129.7V22.9h250.6V285.4z"/>
<polygon fill="#FFFFFF" points="214.9,222.4 194.5,222.4 194.5,256.5 160.4,256.5 160.4,280.3 194.5,280.3 194.5,314.4 214.9,314.4 
	214.9,280.3 249,280.3 249,256.5 214.9,256.5 "/>
<circle fill="#FFFFFF" cx="341.1" cy="251.3" r="11.9"/>
<circle fill="#FFFFFF" cx="307" cy="285.4" r="11.9"/>
<path fill="#FFFFFF" d="M170.6,193.4h170.4c6.8,0,11.9-3.4,11.9-10.2V63.9c0-6.8-3.4-10.2-11.9-10.2H170.6
	c-6.8,0-10.2,3.4-10.2,10.2v119.3C160.4,190,163.8,193.4,170.6,193.4z M180.9,74.1h148.3v97.2H180.9V74.1z"/>
</svg>
