<?xml version="1.0" encoding="utf-8"?>
<!-- Generator: Adobe Illustrator 19.2.0, SVG Export Plug-In . SVG Version: 6.00 Build 0)  -->
<svg version="1.1" id="Layer_1" xmlns="http://www.w3.org/2000/svg" xmlns:xlink="http://www.w3.org/1999/xlink" x="0px" y="0px"
	 viewBox="0 0 40 40" style="enable-background:new 0 0 40 40;" xml:space="preserve">
<style type="text/css">
	.st0{opacity:0.9;fill:#FFFFFF;}
</style>
<path class="st0" d="M20,0C9,0,0,9,0,20s9,20,20,20c0.1,0,0.3,0,0.4,0V26.8H16v-5.5h4.4v-3.3c0-4.6,2.6-7.8,6.6-7.8
	c1.9,0,3.3,0,4.4,0v5.5h-2.2c-2.2,0-3.3,1.1-3.3,3.3v2.2h5.5l-1.1,5.5H26v12.3C34.1,36.6,40,29,40,20C40,9,31,0,20,0z"/>
</svg>
