<?xml version="1.0" encoding="utf-8"?>
<!-- Generator: Adobe Illustrator 19.2.0, SVG Export Plug-In . SVG Version: 6.00 Build 0)  -->
<svg version="1.1" id="Layer_1" xmlns="http://www.w3.org/2000/svg" xmlns:xlink="http://www.w3.org/1999/xlink" x="0px" y="0px"
	 viewBox="0 0 40 40" style="enable-background:new 0 0 40 40;" xml:space="preserve">
<style type="text/css">
	.st0{opacity:0.9;fill:#FFFFFF;}
</style>
<path class="st0" d="M20,10.7c-2.6,0-4.7,2.1-4.7,4.7S17.4,20,20,20s4.7-2.1,4.7-4.7S22.6,10.7,20,10.7z M20,18.1
	c-1.5,0-2.8-1.3-2.8-2.8s1.3-2.8,2.8-2.8s2.8,1.3,2.8,2.8S21.5,18.1,20,18.1z"/>
<path class="st0" d="M20,0C9,0,0,9,0,20c0,11,9,20,20,20c11,0,20-9,20-20C40,9,31,0,20,0z M20,34.9c0,0-10.2-13.9-10.2-19.5
	S14.3,5.1,20,5.1s10.2,4.6,10.2,10.2S20,34.9,20,34.9z"/>
</svg>
