<?xml version="1.0" encoding="utf-8"?>
<!-- Generator: Adobe Illustrator 19.2.0, SVG Export Plug-In . SVG Version: 6.00 Build 0)  -->
<svg version="1.1" id="Warstwa_1" xmlns="http://www.w3.org/2000/svg" xmlns:xlink="http://www.w3.org/1999/xlink" x="0px" y="0px"
	 viewBox="0 0 40 40" style="enable-background:new 0 0 40 40;" xml:space="preserve">
<style type="text/css">
	.st0{opacity:0.9;fill:none;}
	.st1{opacity:0.9;fill:#FFFFFF;}
	.st2{opacity:0.9;fill:#E7E1E2;enable-background:new    ;}
</style>
<path class="st0" d="M14,20.5c0.9,1.4,2.4,2.4,4.1,2.6C16.4,22.9,14.9,21.9,14,20.5z"/>
<path class="st0" d="M19.5,11.5c3,0.3,5.3,2.8,5.3,5.7C24.7,14.3,22.5,11.8,19.5,11.5c-3.2-0.3-6,2.1-6.3,5.3c0,0.2,0,0.4,0,0.6
	c0-0.2,0-0.4,0-0.6C13.4,13.6,16.2,11.3,19.5,11.5z"/>
<path class="st0" d="M18.7,23.2c1.9,0.1,3.6-0.8,4.8-2.2C22.4,22.4,20.6,23.2,18.7,23.2z"/>
<path class="st1" d="M20,0C9,0,0,9,0,20c0,11,9,20,20,20c11,0,20-9,20-20C40,9,31,0,20,0z M28.3,30.1c-0.5,0.4-1.2,0.3-1.6-0.2
	l-3.8-5.2l0.2-0.2L22.8,24c-1.3,0.8-2.9,1.1-4.5,1c-4.2-0.4-7.4-4.1-7-8.3c0.4-4.2,4.1-7.4,8.3-7c4.2,0.4,7.4,4.1,7,8.3
	c-0.2,2.2-1.3,4.1-3,5.4l0.4,0.4l0.2-0.2l4.2,4.9C28.9,29,28.8,29.7,28.3,30.1z"/>
<path class="st1" d="M14,20.5c-0.6-0.9-0.9-1.9-0.9-3C13.1,18.6,13.5,19.6,14,20.5z"/>
<path class="st2" d="M14,20.5c-0.6-0.9-0.9-1.9-0.9-3C13.1,18.6,13.5,19.6,14,20.5z"/>
<path class="st1" d="M18.1,23.1c0.1,0,0.2,0,0.3,0c0.1,0,0.2,0,0.3,0c-0.1,0-0.2,0-0.3,0C18.4,23.2,18.2,23.1,18.1,23.1z"/>
<path class="st2" d="M18.1,23.1c0.1,0,0.2,0,0.3,0c0.1,0,0.2,0,0.3,0c-0.1,0-0.2,0-0.3,0C18.4,23.2,18.2,23.1,18.1,23.1z"/>
<path class="st1" d="M23.5,21c0.7-0.9,1.2-2,1.3-3.2c0-0.2,0-0.4,0-0.6c0,0.2,0,0.4,0,0.6C24.7,19.1,24.2,20.1,23.5,21z"/>
<path class="st2" d="M23.5,21c0.7-0.9,1.2-2,1.3-3.2c0-0.2,0-0.4,0-0.6c0,0.2,0,0.4,0,0.6C24.7,19.1,24.2,20.1,23.5,21z"/>
</svg>
