<?xml version="1.0" encoding="utf-8"?>
<!-- Generator: Adobe Illustrator 19.2.0, SVG Export Plug-In . SVG Version: 6.00 Build 0)  -->
<svg version="1.1" id="Warstwa_1" xmlns="http://www.w3.org/2000/svg" xmlns:xlink="http://www.w3.org/1999/xlink" x="0px" y="0px"
	 viewBox="0 0 40 40" style="enable-background:new 0 0 40 40;" xml:space="preserve">
<style type="text/css">
	.st0{opacity:0.9;fill:#FFFFFF;}
</style>
<circle class="st0" cx="19" cy="17.4" r="5.1"/>
<path class="st0" d="M20,0C9,0,0,9,0,20c0,11,9,20,20,20c11,0,20-9,20-20C40,9,31,0,20,0z M28.3,30.1c-0.5,0.4-1.2,0.3-1.6-0.2
	l-3.8-5.2l0.2-0.2L22.8,24c-1.3,0.8-2.9,1.1-4.5,1c-4.2-0.4-7.4-4.1-7-8.3c0.4-4.2,4.1-7.4,8.3-7c4.2,0.4,7.4,4.1,7,8.3
	c-0.2,2.2-1.3,4.1-3,5.4l0.4,0.4l0.2-0.2l4.2,4.9C28.9,29,28.8,29.7,28.3,30.1z"/>
</svg>
