<?xml version="1.0" encoding="utf-8"?>
<!-- Generator: Adobe Illustrator 19.2.0, SVG Export Plug-In . SVG Version: 6.00 Build 0)  -->
<svg version="1.1"
	 id="svg2" xmlns:cc="http://creativecommons.org/ns#" xmlns:dc="http://purl.org/dc/elements/1.1/" xmlns:inkscape="http://www.inkscape.org/namespaces/inkscape" xmlns:rdf="http://www.w3.org/1999/02/22-rdf-syntax-ns#" xmlns:sodipodi="http://sodipodi.sourceforge.net/DTD/sodipodi-0.dtd" xmlns:svg="http://www.w3.org/2000/svg"
	 xmlns="http://www.w3.org/2000/svg" xmlns:xlink="http://www.w3.org/1999/xlink" x="0px" y="0px" viewBox="0 0 40 40"
	 style="enable-background:new 0 0 40 40;" xml:space="preserve">
<style type="text/css">
	.st0{opacity:0.9;fill:#FFFFFF;}
</style>
<path class="st0" d="M20,0C9,0,0,9,0,20s9,20,20,20s20-9,20-20S31,0,20,0z M30.2,14.8c0,0.2,0,0.5,0,0.7c0,6.9-5.3,14.9-14.9,14.9
	c-3,0-5.7-0.9-8-2.4c0.4,0,0.8,0.1,1.3,0.1c2.5,0,4.7-0.8,6.5-2.2c-2.3,0-4.2-1.6-4.9-3.6c0.3,0.1,0.6,0.1,1,0.1
	c0.5,0,0.9-0.1,1.4-0.2C10,21.6,8.2,19.5,8.2,17c0,0,0,0,0-0.1c0.7,0.4,1.5,0.6,2.4,0.7c-1.4-0.9-2.3-2.5-2.3-4.4
	c0-1,0.3-1.9,0.7-2.6c2.6,3.2,6.5,5.3,10.8,5.5c-0.1-0.4-0.1-0.8-0.1-1.2c0-2.9,2.3-5.2,5.1-5.3c0,0,0.1,0,0.1,0
	c1.5,0,2.9,0.6,3.8,1.7c1.2-0.2,2.3-0.7,3.3-1.3c-0.4,1.2-1.2,2.3-2.3,2.9c1.1-0.1,2.1-0.4,3-0.8C32.1,13.1,31.2,14,30.2,14.8z"/>
</svg>
