<?xml version="1.0" encoding="utf-8"?>
<!-- Generator: Adobe Illustrator 19.2.0, SVG Export Plug-In . SVG Version: 6.00 Build 0)  -->
<svg version="1.1"
	 id="svg2" xmlns:cc="http://creativecommons.org/ns#" xmlns:dc="http://purl.org/dc/elements/1.1/" xmlns:inkscape="http://www.inkscape.org/namespaces/inkscape" xmlns:rdf="http://www.w3.org/1999/02/22-rdf-syntax-ns#" xmlns:sodipodi="http://sodipodi.sourceforge.net/DTD/sodipodi-0.dtd" xmlns:svg="http://www.w3.org/2000/svg"
	 xmlns="http://www.w3.org/2000/svg" xmlns:xlink="http://www.w3.org/1999/xlink" x="0px" y="0px" viewBox="0 0 40 40"
	 style="enable-background:new 0 0 40 40;" xml:space="preserve">
<style type="text/css">
	.st0{enable-background:new    ;}
	.st1{opacity:0.9;fill:#FFFFFF;}
</style>
<polygon class="st1" points="11,22 12.5,22 12.5,30.1 13.9,30.1 13.9,22 15.4,22 15.4,20.6 11,20.6 "/>
<path class="st1" d="M23,23c-0.5,0-0.9,0.3-1.3,0.8v-3.1h-1.3v9.5h1.3v-0.7c0.4,0.5,0.9,0.8,1.3,0.8c0.5,0,0.9-0.3,1-0.8
	c0.1-0.3,0.1-0.8,0.1-1.4v-2.8c0-0.7,0-1.1-0.1-1.4C23.9,23.2,23.6,23,23,23z M22.9,28.1c0,0.6-0.2,1-0.6,1c-0.2,0-0.4-0.1-0.6-0.3
	v-4.3c0.2-0.2,0.4-0.3,0.6-0.3c0.4,0,0.6,0.3,0.6,1V28.1z"/>
<path class="st1" d="M20,15.7c0.4,0,0.6-0.3,0.6-1v-3c0-0.7-0.2-1-0.6-1c-0.4,0-0.6,0.3-0.6,1v3C19.4,15.4,19.6,15.7,20,15.7z"/>
<path class="st1" d="M18,28.5c-0.3,0.4-0.6,0.6-0.8,0.6c-0.2,0-0.3-0.1-0.3-0.3c0,0,0-0.2,0-0.5v-5.2h-1.3v5.6c0,0.5,0,0.8,0.1,1.1
	c0.1,0.4,0.4,0.5,0.8,0.5c0.5,0,1-0.3,1.5-0.9v0.8h1.3v-7.1H18V28.5z"/>
<path class="st1" d="M27.1,23L27.1,23c-0.7,0-1.2,0.2-1.5,0.7c-0.3,0.4-0.4,0.9-0.4,1.7v2.5c0,0.8,0.1,1.3,0.4,1.7
	c0.4,0.5,0.9,0.7,1.6,0.7c0.7,0,1.2-0.3,1.6-0.8c0.2-0.2,0.3-0.5,0.3-0.8c0-0.1,0-0.4,0-0.8v-0.2h-1.3c0,0.5,0,0.8,0,0.9
	c-0.1,0.3-0.3,0.5-0.6,0.5c-0.4,0-0.7-0.3-0.7-1v-1.3H29v-1.5c0-0.8-0.1-1.3-0.4-1.7C28.3,23.2,27.8,23,27.1,23z M27.8,25.8h-1.3
	v-0.7c0-0.7,0.2-1,0.6-1c0.4,0,0.6,0.3,0.6,1V25.8z"/>
<path class="st1" d="M20,0C9,0,0,9,0,20s9,20,20,20s20-9,20-20S31,0,20,0z M23,9.6h1.3v5.3c0,0.3,0,0.5,0,0.5c0,0.2,0.1,0.3,0.3,0.3
	c0.3,0,0.5-0.2,0.8-0.6V9.6h1.3v7.2h-1.3V16c-0.5,0.6-1,0.9-1.5,0.9c-0.4,0-0.7-0.2-0.8-0.5c-0.1-0.2-0.1-0.6-0.1-1.1V9.6z M18.1,12
	c0-0.8,0.1-1.3,0.4-1.7c0.4-0.5,0.9-0.7,1.5-0.7c0.7,0,1.2,0.2,1.5,0.7c0.3,0.4,0.4,0.9,0.4,1.7v2.5c0,0.8-0.1,1.3-0.4,1.7
	c-0.4,0.5-0.9,0.7-1.5,0.7c-0.6,0-1.2-0.2-1.5-0.7c-0.3-0.4-0.4-0.9-0.4-1.7V12z M14.6,7.2l1,3.8l1-3.8h1.5l-1.7,5.7v3.9h-1.4v-3.9
	c-0.1-0.7-0.4-1.7-0.9-3c-0.3-0.9-0.6-1.8-0.9-2.7H14.6z M30.6,25.5c0,1.6,0,3.4-0.4,5c-0.3,1.1-1.2,2-2.3,2.1
	c-2.5,0.3-5,0.3-7.5,0.3H20h-0.5c-2.5,0-5,0-7.5-0.3c-1.1-0.1-2-1-2.3-2.1c-0.4-1.6-0.4-3.3-0.4-4.9v-0.1c0-1.7,0-3.4,0.4-5
	c0.3-1.1,1.2-2,2.3-2.1c2.5-0.3,5-0.3,7.5-0.3H20h0.5c2.5,0,5,0,7.5,0.3c1.1,0.1,2,1,2.3,2.1C30.6,22,30.6,23.7,30.6,25.5L30.6,25.5
	z"/>
</svg>
