<?xml version="1.0" encoding="utf-8"?>
<!-- Generator: Adobe Illustrator 18.1.1, SVG Export Plug-In . SVG Version: 6.00 Build 0)  -->
<svg version="1.1" id="Layer_1" xmlns="http://www.w3.org/2000/svg" xmlns:xlink="http://www.w3.org/1999/xlink" x="0px" y="0px"
	 viewBox="0 0 510.2 368.5" enable-background="new 0 0 510.2 368.5" xml:space="preserve">
<rect x="106.3" y="20" opacity="0.1" fill="#FFFFFF" stroke="#BAA474" stroke-width="1.5" stroke-miterlimit="10" enable-background="new    " width="307.7" height="329.4"/>
<path fill="#A27854" d="M234.9,163c0,2.2-1.5,4.4-4.1,5.9c-2.6,1.8-6.6,2.6-11.8,2.2l0,0c-10.3,0-25.8,0-46.4,0
	c-0.7,0-1.1-0.4-1.8-0.7c-0.4-0.4-0.7-1.1-0.7-1.5c0-9.2,0-22.8,0-41.3c0-15.1,0-38.3,0-68.9c0-0.7,0.4-1.1,0.7-1.5
	c0.4-0.4,1.1-0.7,1.8-0.7s2.2,0,3.7,0c0.7,0,1.1,0.4,1.5,0.7c0.4,0.4,0.7,0.7,0.7,1.5c0,23.2,0,58.6,0,105.4c9.9,0,24.3,0,44.2,0
	c-0.4-0.4-0.4-0.7-0.4-1.1s-0.4-0.7,0-1.5c0-2.2,0.7-3.7,2.2-4.8s3.3-1.5,4.8-1.5c2.2,0,3.7,0.7,4.8,2.2c1.1,1.1,1.5,2.6,1.5,4.4
	C234.9,162.7,234.9,163,234.9,163z"/>
<path fill="#A27854" d="M303.8,55.4c5.9,0,11.8,0.7,17.3,2.2s10.7,3.7,15.5,6.6c8.8,5.2,15.8,12.2,21,21s8.1,18.8,8.1,29.1
	s-2.6,20.3-7.7,29.1c-5.2,8.8-12.5,15.8-21.4,21c-4.8,2.9-9.9,4.8-15.1,6.6c-5.5,1.5-11.4,2.2-17.3,2.2c-11.1,0-21.4-2.6-30.6-7.7
	c-9.2-5.2-16.6-11.8-22.1-19.9c-2.9-4.4-5.2-9.6-6.6-14.7c-1.5-5.2-2.2-10.7-2.2-16.2c0-10.7,2.6-20.3,8.1-29.1
	c5.2-8.8,12.5-15.8,21-21c4.8-2.9,9.9-4.8,15.1-6.6C292,56.2,297.9,55.4,303.8,55.4z M332.6,158.2c7.7-4.4,14-10.7,18.8-18.4
	s7-16.2,7-25.4c0-5.2-0.7-9.9-2.2-14.4c-1.5-4.8-3.3-8.8-5.9-12.9c-4.8-7.4-11.1-13.3-19.2-17.7s-17-6.6-26.9-6.6
	c-5.2,0-10.3,0.7-15.1,2.2c-4.8,1.5-9.2,3.3-13.6,5.5c-7.7,4.4-13.6,10.7-18.4,18.4s-7,16.2-7,25.8c0,9.2,2.2,17.7,7,25.4
	c4.8,7.7,10.7,13.6,18.4,18.4c4.1,2.6,8.5,4.4,13.6,5.5c4.8,1.5,9.9,1.8,15.1,1.8s10.3-0.7,15.1-1.8"/>
<path fill="#A27854" d="M303.8,89.3c2.6,0,5.2,0.4,7.4,1.1c2.2,0.7,4.4,1.5,6.6,2.6c3.7,2.2,6.6,5.2,8.8,8.8
	c2.2,3.7,3.3,8.1,3.3,12.5s-1.1,8.5-3.3,12.5c-2.2,3.7-5.2,6.6-9.2,8.8c-1.8,1.1-4.1,2.2-6.6,2.6c-2.2,0.7-4.8,1.1-7.4,1.1
	c-4.8,0-9.2-1.1-12.9-3.3c-4.1-2.2-7-4.8-9.2-8.5c-1.1-1.8-2.2-4.1-2.9-6.3c-0.7-2.2-1.1-4.4-1.1-7c0-4.4,1.1-8.5,3.3-12.5
	c2.2-3.7,5.2-6.6,8.8-8.8c1.8-1.1,4.1-2.2,6.6-2.6C299,89.3,301.2,89.3,303.8,89.3z"/>
<path fill="#A27854" d="M175.6,303.8L175.6,303.8c14,0.4,35.4,0.4,63.8,0.4c0.7,0,1.1,0.4,1.8,0.7c0.4,0.4,0.7,1.1,0.7,1.5
	s0,1.5,0,2.9c0,0.7-0.4,1.1-0.7,1.5c-0.4,0.4-1.1,0.7-1.8,0.7c-15.8,0-40.2,0-72.2,0c-0.7,0-1.1-0.4-1.8-0.7
	c-0.4-0.4-0.7-0.7-0.7-1.5c0-0.7,0-1.8,0-2.9c15.5-22.5,38.7-56.7,69.6-102.1v-0.4c-13.6,0-34.3,0-61.9,0c-0.7,0-1.1-0.4-1.5-0.7
	c-0.4-0.4-0.7-1.1-0.7-1.8c0-0.4,0-1.5,0-2.6c0-0.4,0.4-1.1,0.7-1.5c0.4-0.4,1.1-0.7,1.5-0.7c15.8,0,39.1,0,70.4,0
	c0.7,0,1.1,0.4,1.8,0.7c0.4,0.4,0.7,1.1,0.7,1.5c0,0.7,0,1.5,0,2.6c-7.4,10.7-18.4,26.5-32.8,47.9c1.1,1.5,2.9,2.6,5.5,4.1
	c2.2,1.5,5.2,2.2,8.5,2.6c1.1,0,2.6,0,3.7,0s2.2-0.4,2.9-0.7c-0.4-0.4-0.4-0.7-0.7-1.1c0-0.4-0.4-0.7-0.4-1.5c0-2.2,0.7-3.7,2.2-4.8
	s2.9-1.5,4.8-1.5c2.2,0,3.7,0.7,4.8,1.8c1.1,1.5,1.8,2.9,1.8,5.2c0,2.2-1.1,4.4-3.7,6.3c-2.6,1.8-6.6,2.6-12.2,2.6
	c-4.8,0-8.8-0.7-12.2-2.6c-3.3-1.8-6.3-3.3-8.1-5.2C201.7,265.5,190.7,281.7,175.6,303.8z"/>
<path fill="#A27854" d="M360.6,311.2c-1.1,0-2.6,0-4.4,0c-0.7,0-1.1,0-1.5-0.4s-0.7-0.7-1.1-0.7c-2.9-6.6-7.7-16.6-14-30.2
	c-10.3,0-25.8,0-46.4,0c-0.4,0-0.4,0-0.7,0c-0.4,0-0.4,0-0.7,0c0.4,0.4,0.4,0.7,0.4,1.5c0,0.4,0.4,0.7,0.4,1.5
	c0,2.2-1.1,3.7-2.2,4.8c-1.5,1.1-2.9,1.5-4.8,1.5s-3.7-0.7-4.8-2.2c-1.1-1.1-1.5-2.9-1.5-5.2c0-2.2,1.5-4.4,4.1-5.9
	c2.6-1.8,6.6-2.6,12.2-2.2c9.2,0,23.2,0,41.6,0c-6.6-14.7-16.2-36.5-29.5-66h-0.4c-10.3,22.8-25.8,56.7-46.4,102.4
	c0,0.4-0.4,0.7-0.7,0.7c-0.4,0.4-0.7,0.4-1.5,0.4c-1.1,0-2.6,0-4.8,0c-0.7,0-1.1,0-1.1-0.4c0,0-0.4-0.4-0.4-0.7s0-0.4,0.4-0.7
	c11.8-25.4,29.1-63,52.7-113.5c0-0.4,0.4-0.7,0.7-0.7c0.4-0.4,0.7-0.4,1.1-0.4h0.4c0.4,0,0.7,0,1.5,0c0.4,0,0.7,0.4,1.1,1.1
	c11.8,25.4,29.1,63,52.3,113.5c0,0.4,0,0.7,0,0.7c0,0.4,0,0.4,0,0.7C361.7,311.2,361.3,311.2,360.6,311.2z"/>
<rect x="106.3" y="20" fill="none" stroke="#A27854" stroke-width="5" stroke-miterlimit="10" width="307.7" height="329.4"/>
</svg>
